<?xml version="1.0" encoding="UTF-8" standalone="no"?>
<svg
   xmlns:dc="http://purl.org/dc/elements/1.1/"
   xmlns:cc="http://creativecommons.org/ns#"
   xmlns:rdf="http://www.w3.org/1999/02/22-rdf-syntax-ns#"
   xmlns:svg="http://www.w3.org/2000/svg"
   xmlns="http://www.w3.org/2000/svg"
   viewBox="0 0 2829.3333 2829.3333"
   height="2829.3333"
   width="2829.3333"
   xml:space="preserve"
   id="svg2"
   version="1.1"><metadata
     id="metadata8"><rdf:RDF><cc:Work
         rdf:about=""><dc:format>image/svg+xml</dc:format><dc:type
           rdf:resource="http://purl.org/dc/dcmitype/StillImage" /></cc:Work></rdf:RDF></metadata><defs
     id="defs6" /><g
     transform="matrix(1.3333333,0,0,-1.3333333,0,2829.3333)"
     id="g10"><g
       transform="scale(0.1)"
       id="g12"><path
         id="path14"
         style="fill:#f26bbc;fill-opacity:1;fill-rule:nonzero;stroke:none"
         d="m 7719.09,7020.7 v 922.6 c -80.12,20.7 -159.21,45.1 -237.19,73.4 -23.9,11.6 -47.48,23.7 -70.97,36.1 -87.07,45.8 -171.32,96.4 -252.54,152.1 -67.44,59.2 -130.88,122.3 -190.45,189.5 -46.25,69 -88.33,140.5 -125.9,214.6 -29.18,84.8 -52.83,171.1 -70.88,259 -6.73,99.7 -6.63,199.5 0.08,299.2 26.32,135.4 63.34,268.1 110.34,397.8 105.19,224 233.94,434.9 379.44,634.9 32.44,39.7 64.36,79.9 97.83,118.7 l -1380.41,1370.7 c -170.96,-197.2 -331.16,-404.8 -478.03,-619.4 -193.52,-282.9 -334.84,-584.8 -462.64,-902.7 -239.22,-595.1 -276.96,-1275.1 -124.78,-1896.6 56.75,-231.9 146.24,-465.7 264.56,-678.7 49.78,-5.8 99.71,-13.7 149.71,-24.4 763.67,-164.1 1565.98,-346.7 2391.83,-546.8" /><path
         id="path16"
         style="fill:#f9e089;fill-opacity:1;fill-rule:nonzero;stroke:none"
         d="m 7437.11,10240.9 -0.89,7.2 c 50.27,615.8 183.44,1221.2 398.3,1800.6 21.59,58.2 115.54,32.9 93.76,-25.9 -211.78,-571 -345.25,-1167.6 -394.82,-1774.7 -3.51,-42.9 -50.66,-55.6 -77.98,-39.1 -31.74,-667.4 -51.47,-1403.2 -44.55,-2156.2 23.49,-12.4 47.07,-24.5 70.97,-36.1 77.98,-28.3 157.07,-52.7 237.19,-73.4 V 9741.7 H 13417.1 V 7756.2 c 100.9,23.3 200.3,52 298,87 -12.2,547.1 -37,1249.4 -86.6,1993.2 -27.9,-8.6 -65.1,6.1 -66.9,44.3 -32.1,658.6 -154.7,1308.4 -363.4,1933.8 -19.9,59.6 74,85 93.7,25.9 203.3,-609.1 323.9,-1241.9 361.8,-1882.6 l 191.4,190 1380.4,1370.7 226.4,224.8 c -904,910.4 -2006.5,1579.1 -2764.4,1708.4 -185.4,54.9 -416,102.6 -680.9,141 l -1.2,-8.3 c -217.9,-603.8 -941.5,-834.3 -1528.6,-844.9 -601.27,-11 -1204.37,254.9 -1516.88,784.6 -31.91,54.1 52.17,102.9 83.95,49.1 288.78,-489.5 842.12,-737.6 1397.83,-736.8 546,0.7 1260.5,203.4 1468.1,769.7 -150.1,19.8 -310,36.7 -478,50.3 11.7,-79 18.3,-129.7 19.1,-144.5 7.9,-153.4 -412,-299.6 -937.9,-326.6 -525.79,-26.9 -958.42,75.5 -966.29,228.9 -1.06,20.5 2.02,110.7 9.33,250.7 C 8969.8,13623.8 8472.5,13542.7 8139.07,13437.3 7460.85,13284.1 6568.27,12736 5752.09,11914 l 226.35,-224.7 1380.41,-1370.7 78.26,-77.7" /><g
         transform="scale(1.00879)"
         id="g18"><path
           id="path20"
           style="fill:#f26bbc;fill-opacity:1;fill-rule:nonzero;stroke:none"
           d="m 13821.7,9941.56 c 144.1,-198.16 271.7,-407.12 376,-629.17 46.6,-128.47 83.2,-260.02 109.3,-394.24 6.6,-98.93 6.8,-197.76 0.1,-296.69 -17.8,-87.14 -41.4,-172.68 -70.3,-256.84 -37.2,-73.46 -78.9,-144.24 -124.8,-212.64 -59.1,-66.61 -121.9,-129.16 -188.7,-187.85 -102.3,-70.08 -209.3,-132.24 -320.8,-186.56 l -6.8,-2.68 c -96.9,-34.69 -195.4,-63.14 -295.4,-86.24 v -729.09 c 818.6,198.36 1613.9,379.36 2370.9,542.04 102.5,22 204.9,33.2 305.9,34.69 73.2,159.7 131.3,326.73 172,492.97 150.9,616.19 113.4,1290.27 -123.7,1880.09 -126.7,315.15 -266.7,614.35 -458.7,894.85 -145.5,212.7 -304.3,418.5 -473.8,614 l -1368.4,-1358.8 c 33.2,-38.4 65,-78.39 97.2,-117.84" /></g><path
         id="path22"
         style="fill:#f26bbc;fill-opacity:1;fill-rule:nonzero;stroke:none"
         d="m 11231.4,14813.7 4.6,4 -0.4,0.9 c -235,-195.5 -575,-329.6 -1048,-403.8 -222.23,-34.9 -415.61,-47.4 -584.9,-38.8 -22.25,-290.1 -37.67,-538.6 -46.66,-711.1 -7.31,-140 -10.39,-230.2 -9.33,-250.7 7.87,-153.4 440.5,-255.8 966.29,-228.9 525.9,27 945.8,173.2 937.9,326.6 -0.8,14.8 -7.4,65.5 -19.1,144.5 -32.2,217.7 -103.6,652.4 -200.4,1157.3" /><g
         transform="scale(1.05371)"
         id="g24"><path
           id="path26"
           style="fill:#f26bbc;fill-opacity:1;fill-rule:nonzero;stroke:none"
           d="m 10235.7,15570.5 c -39.2,-9.3 -88,55.1 -108.9,143.7 -21,88.7 -6.2,168.1 33.1,177.3 39.3,9.3 88.1,-55 109.1,-143.7 20.8,-88.6 6,-168 -33.3,-177.3 z m 5.7,694.5 c -182.6,35 -372.74,-52 -467.83,-211.1 -95.57,-160.1 -81.14,-370 37.58,-514.3 31.41,-38.2 68.62,-69.8 109.33,-95.1 179.32,25.2 359.52,41 538.32,47.3 91.5,83.9 147.2,203.8 148.9,331.8 -2.9,214.4 -154.2,400.8 -366.3,441.4" /></g><g
         transform="scale(1.03519)"
         id="g28"><path
           id="path30"
           style="fill:#f26bbc;fill-opacity:1;fill-rule:nonzero;stroke:none"
           d="m 8968.07,15542.8 c -39.97,-9.5 -89.66,56 -110.97,146.2 -21.32,90.3 -6.25,171.1 33.73,180.5 39.94,9.5 89.65,-56 110.96,-146.3 21.35,-90.2 6.23,-171 -33.72,-180.4 z m 314.18,272.3 c -2.98,218.3 -156.95,408 -372.78,449.3 -185.9,35.6 -379.5,-53 -476.28,-214.9 -97.33,-162.9 -82.62,-376.6 38.25,-523.5 81.4,-99 199.96,-156.1 323.52,-164.9 117.76,51.9 238.09,98.2 361.03,139.5 78.35,83.7 124.65,196 126.26,314.5" /></g><g
         transform="scale(1.01547)"
         id="g32"><path
           id="path34"
           style="fill:#f26bbc;fill-opacity:1;fill-rule:nonzero;stroke:none"
           d="m 10003.8,16264.2 -7.3,0.3 c -145.55,35.5 -300.36,9.9 -427.68,-68.7 -5.62,-3.4 -11.1,-5 -16.52,-6 2.94,-22.3 5.65,-44.7 5.98,-67.6 -1.36,-97.2 -27.8,-190.8 -73.56,-272.8 69.17,20.7 139.04,40.1 209.71,58.1 7.01,34.5 14.01,69.1 21.06,103.6 12.29,60.4 104.56,34.7 92.34,-25.5 -3.55,-17.4 -7.21,-34.7 -10.8,-52.1 120.78,28.4 243.27,52 366.57,72.3 -40.2,36.4 -75.9,78.5 -104.6,126.5 -24.9,41.8 -42.3,86.4 -55.2,131.9" /></g><g
         transform="scale(1.03719)"
         id="g36"><path
           id="path38"
           style="fill:#d52b68;fill-opacity:1;fill-rule:nonzero;stroke:none"
           d="m 11546.5,16198 c 67.3,5.4 133.4,-12.5 187.7,-51.1 -99.1,-68.3 -162.2,-181.7 -166.7,-302.4 -1,-24.5 22.2,-48 46.9,-46.9 26.2,1.2 45.8,20.6 46.8,46.9 0.3,6.9 0.7,13.7 1.4,20.6 l 0.4,4.1 0.9,5.9 c 2.1,12.9 5.1,25.6 8.9,38.2 l 6.4,19.6 3.7,9.6 0.2,0.6 0.7,1.5 c 5.5,11.9 11.4,23.5 18.1,34.8 6.4,10.8 13.4,21.1 20.9,31.1 l 8,9.6 14,15.1 c 9.2,9.4 18.9,18 29,26.3 l 2,1.4 8.5,5.9 17.1,10.9 c 32.2,-47.5 49.3,-103.7 48.8,-160.9 -0.5,-60.3 93.3,-60.3 93.8,0 0.8,102 -41.4,204.7 -116.4,274.4 -75,69.6 -178.9,106.8 -281.1,98.5 -25.3,-2 -47,-20 -47,-46.8 0,-23.8 21.5,-49 47,-46.9" /></g><g
         transform="scale(1.1108)"
         id="g40"><path
           id="path42"
           style="fill:#f26bbc;fill-opacity:1;fill-rule:nonzero;stroke:none"
           d="m 7258.56,13995.4 c -19.84,-12.8 -48.34,-4.1 -59.87,15.7 l -10.14,16.4 -5.48,8 -1.22,1.9 c -7.43,9.7 -15.63,18.8 -24.24,27.4 -8.26,8.3 -17.05,15.9 -26.11,23.3 l -3.05,2.4 -7.88,5.6 -14.61,9.4 c -10.41,6.3 -21.24,12.1 -32.33,17.2 l -5.36,2.4 -5.5,2.1 -18.25,6.2 c -11.66,3.6 -23.53,6.5 -35.52,8.6 l -9.52,1.6 0.18,-0.1 c -6.41,0.6 -12.81,1.1 -19.25,1.4 l -0.62,0.2 c -5.54,-52.3 3.76,-106.1 28.83,-152.6 26.75,-49.7 -48.85,-93.8 -75.58,-44.2 -47.23,87.7 -58.08,195.8 -21.33,289.4 33.4,85 98.62,156.4 182.89,193.1 21.74,9.5 46.79,6.7 59.87,-15.7 10.93,-18.7 5.98,-50.5 -15.7,-59.9 -57.84,-25.2 -105.91,-69 -134.28,-125.4 111.05,-13 213.14,-77.1 269.78,-174.5 12.33,-21.2 4.26,-47 -15.71,-59.9 z m 3522.74,1216.7 c 95.4,7.7 192.5,-27.1 262.5,-92.1 70,-65 109.4,-160.9 108.7,-256.1 -0.5,-56.4 -88.1,-56.3 -87.6,0 0.4,53.3 -15.5,105.9 -45.6,150.2 l -15.9,-10.1 -7.9,-5.6 -1.9,-1.3 c -9.5,-7.7 -18.6,-15.8 -27.1,-24.5 l -13.1,-14.2 -7.5,-8.9 c -7,-9.3 -13.6,-19 -19.5,-29 -6.2,-10.6 -11.8,-21.4 -16.9,-32.5 l -0.6,-1.5 -0.2,-0.5 -3.4,-9 -6.1,-18.3 c -3.5,-11.7 -6.3,-23.6 -8.3,-35.6 l -0.8,-5.5 -0.4,-3.9 c -0.7,-6.4 -1,-12.8 -1.3,-19.2 -0.9,-24.6 -19.2,-42.7 -43.7,-43.8 -23.1,-1 -44.7,20.9 -43.8,43.8 4.2,112.7 63.1,218.6 155.7,282.4 -50.7,36 -112.5,52.7 -175.3,47.6 -23.8,-1.9 -43.9,21.6 -43.9,43.8 0,25 20.3,41.9 43.9,43.8 z M 7596.69,14001.5 c 78.12,55.1 169.35,100 245.54,140.8 73.22,39.2 147.11,76 221.45,111.6 -114.58,38 -215.72,114.2 -280.17,222 -110.36,184.7 -89.99,423.4 45.5,589.2 136.34,166.8 374,230.9 575.57,154 151.79,-57.9 263.19,-182.2 309.46,-331.9 124.2,73.1 272.22,98.2 413.58,72.3 -12.51,133.5 26.2,270.6 113.52,377.4 136.3,166.9 373.97,230.9 575.53,154 199.93,-76.2 330.43,-267.4 333.33,-480.6 -1.6,-114.9 -41.6,-224.2 -108.6,-312.2 45.6,0.4 91.3,1.1 136.6,0.1 106.3,-2.2 211.8,-9.8 316.1,-23.4 6.1,-59.8 10.6,-118 13.7,-174.6 l -0.3,4 c 120.1,-105.5 284.3,-159 454.6,-132.3 304,47.7 511.8,332.9 464.1,637 -47.7,304 -332.9,511.8 -636.9,464.1 -164.1,-25.7 -299.6,-120.9 -382.6,-250.6 -137.9,622.4 -383.4,972.6 -878.38,1077.6 -271.87,-374.7 -697.47,-389.9 -697.47,-389.9 0,0 -545.52,-72.5 -828.15,207.2 -584.31,-255.3 -631.18,-722.5 -509.65,-1547.8 -144.15,113 -340.74,153.1 -526.7,88.6 -290.78,-100.8 -444.78,-418.3 -343.93,-709 100.83,-290.8 418.3,-444.8 709.09,-344 133.33,46.3 237.39,138.3 301.83,252.2 -12.9,46.4 -25.07,94.5 -36.65,144.2" /></g><path
         id="path44"
         style="fill:#d52b68;fill-opacity:1;fill-rule:nonzero;stroke:none"
         d="m 7780.62,15806.5 c 31.51,62.7 84.91,111.4 149.16,139.3 24.08,10.5 29.57,45.8 17.44,66.6 -14.53,24.8 -42.36,27.9 -66.51,17.4 -93.61,-40.8 -166.05,-120 -203.15,-214.5 -40.83,-104 -28.78,-224 23.69,-321.4 29.69,-55.2 113.67,-6.1 83.95,49 -27.85,51.7 -38.17,111.4 -32.02,169.5 l 0.69,-0.2 c 7.15,-0.3 14.26,-0.9 21.38,-1.5 l -0.2,0.1 10.57,-1.8 c 13.33,-2.4 26.51,-5.6 39.46,-9.6 l 20.27,-6.9 6.11,-2.3 5.96,-2.7 c 12.32,-5.6 24.34,-12 35.91,-19.1 l 16.23,-10.4 8.75,-6.2 3.39,-2.6 c 10.06,-8.3 19.83,-16.7 29,-26 9.57,-9.5 18.68,-19.7 26.93,-30.4 l 1.36,-2.1 6.08,-8.8 11.26,-18.3 c 12.81,-22 44.47,-31.6 66.51,-17.4 22.18,14.3 31.14,43 17.45,66.5 -62.92,108.1 -176.32,179.4 -299.67,193.8" /><path
         id="path46"
         style="fill:#95b4e3;fill-opacity:1;fill-rule:nonzero;stroke:none"
         d="m 10724.1,7473.9 c 181.4,64.9 299.2,240 301.8,430.6 -3,218.8 -157.3,408.9 -373.7,450.3 -186.3,35.7 -380.3,-53.2 -477.2,-215.4 -97.5,-163.2 -82.9,-377.3 38.2,-524.6 122.6,-149.1 329.2,-206.1 510.9,-140.9" /><path
         id="path48"
         style="fill:#95b4e3;fill-opacity:1;fill-rule:nonzero;stroke:none"
         d="m 10140.3,8257.8 c 147.4,180.4 404.4,249.6 622.3,166.5 216.2,-82.5 357.4,-289.1 360.6,-519.8 -3.6,-262 -190.4,-498.2 -451.9,-545.3 -227.5,-40.9 -461.1,62 -580.3,261.4 -119.36,199.7 -97.25,458 49.3,637.2 z m 3276.8,-501.6 V 9741.7 H 7719.09 v -2721 c 895.39,-217 1819.15,-455.7 2756.21,-717 26.7,7.1 53.2,14.7 79.8,21.7 30.3,7.9 51.8,-11.4 58.3,-34.8 953.4,266.5 1893.2,509.4 2803.7,730.1 v 735.5" /><g
         transform="scale(1.15581)"
         id="g50"><path
           id="path52"
           style="fill:#000000;fill-opacity:1;fill-rule:nonzero;stroke:none"
           d="m 15789.5,1342.18 259.4,947.47 v 0 l 251.1,917.37 c -301.5,82.54 -602.1,-55.89 -671.5,-309.22 -40.7,-149.08 8.2,-304.46 116.4,-424.12 l -1818.8,674.76 -338.4,-1236.27 2201.8,-569.99" /></g><path
         id="path54"
         style="fill:#36909d;fill-opacity:1;fill-rule:nonzero;stroke:none"
         d="m 14387.6,3819.6 c -898.6,-208.3 -1797.3,-416.2 -2694.5,-630.5 -268.7,-64.2 -537.4,-128.5 -805.1,-196.9 -76.2,-19.5 -152.6,-38.9 -228.1,-60.8 l -12.9,-4.6 4930.2,-1183.1 127.6,466.4 391.1,1428.9 168.9,616.8 -7.8,-3.6 C 15633.9,4108 15010.7,3964 14387.6,3819.6" /><path
         id="path56"
         style="fill:#000000;fill-opacity:1;fill-rule:nonzero;stroke:none"
         d="m 2663.71,2838.9 299.74,-1095.2 2423.77,627.5 -387.7,1416.5 -1984.41,-736.2 c 125.07,138.3 181.6,317.9 134.43,490.2 -80.14,292.8 -427.6,452.8 -776.05,357.5 l 290.21,-1060.4 0.01,0.1" /><g
         transform="scale(1.09663)"
         id="g58"><path
           id="path60"
           style="fill:#36909d;fill-opacity:1;fill-rule:nonzero;stroke:none"
           d="m 5069.16,1590.06 4521.53,1084.96 c -2.92,22.89 14.32,51.16 42.68,63.38 52.16,22.52 111.34,33.74 166.05,48.24 619.88,164.32 1246.78,304.2 1870.98,450.2 1043.1,244.02 2086.9,484.76 3130.5,726.23 24.5,5.65 42.1,-7.94 50.2,-25.72 l 105,25.17 c 829.4,199.06 1343.9,1029.07 1153,1860.52 -153.2,667.96 -751.5,1118.98 -1411.7,1109.59 -93,-1.37 -187.2,-11.67 -281.5,-31.92 -696.4,-149.64 -1428,-316.15 -2181,-498.62 -830.3,-201.25 -1687.3,-422.75 -2556.67,-665.77 5.93,-21.42 -1.91,-46.5 -29.54,-53.8 C 9096.74,5537.9 8548.94,5377.77 8004.25,5207.97 6797.43,4831.73 5598.63,4418.01 4421.6,3956.23 c -53.24,-20.88 -76.11,64.92 -23.56,85.53 121.77,47.78 244.11,94.2 366.5,140.34 1569.92,592.82 3164.78,1137.12 4787.76,1566.17 -854.49,238.28 -1696.86,455.94 -2513.35,653.82 -753.09,182.47 -1484.7,348.98 -2181.08,498.62 -45.6,9.76 -91.13,16.97 -136.52,22.25 -715.69,83.44 -1392.24,-383.35 -1556.7,-1099.92 -190.85,-831.45 323.6,-1661.46 1153.12,-1860.52 l 109.2,-26.17 132.03,-482.39 353.54,-1291.69 156.62,-572.21" /></g><path
         id="path62"
         style="fill:#225e65;fill-opacity:1;fill-rule:nonzero;stroke:none"
         d="m 10555.1,6325.4 c -26.6,-7 -53.1,-14.6 -79.8,-21.7 C 8695.49,5833.2 6946.53,5236.3 5224.92,4586.2 5090.7,4535.6 4956.54,4484.7 4823,4432.3 c -57.63,-22.6 -32.54,-116.7 25.84,-93.8 1290.76,506.4 2605.4,960.1 3928.83,1372.7 597.32,186.2 1198.05,361.8 1803.33,520.4 30.3,8 38.9,35.5 32.4,59 -6.5,23.4 -28,42.7 -58.3,34.8" /><path
         id="path64"
         style="fill:#225e65;fill-opacity:1;fill-rule:nonzero;stroke:none"
         d="m 10592.9,2911.1 -1.1,-1.1 c 1.4,-0.3 -4.6,0.2 1.1,1.1 z M 16231.1,4346 c -1144.5,-264.8 -2289.1,-528.8 -3433,-796.4 -684.6,-160.1 -1372,-313.5 -2051.8,-493.7 -60,-15.9 -124.9,-28.2 -182.1,-52.9 -31.1,-13.4 -50,-44.4 -46.8,-69.5 2.4,-19 17.1,-34.7 50.7,-36.4 17.4,-0.9 29.5,6.3 37.2,16.9 13.7,2.9 27.9,7.8 41.7,12.8 l 12.9,4.6 c 75.5,21.9 151.9,41.3 228.1,60.8 267.7,68.4 536.4,132.7 805.1,196.9 897.2,214.3 1795.9,422.2 2694.5,630.5 623.1,144.4 1246.3,288.4 1869.4,432.6 l 7.8,3.6 c 26.6,11.1 31.6,39.3 21.3,62 -8.9,19.5 -28.2,34.4 -55,28.2" /><path
         id="path66"
         style="fill:#5888ce;fill-opacity:1;fill-rule:nonzero;stroke:none"
         d="m 10175,8139.4 c 96.9,162.2 290.9,251.1 477.2,215.4 216.4,-41.4 370.7,-231.5 373.7,-450.3 -2.6,-190.6 -120.4,-365.7 -301.8,-430.6 -181.7,-65.2 -388.3,-8.2 -510.9,140.9 -121.1,147.3 -135.7,361.4 -38.2,524.6 z m 496.3,-780.2 c 261.5,47.1 448.3,283.3 451.9,545.3 -3.2,230.7 -144.4,437.3 -360.6,519.8 -217.9,83.1 -474.9,13.9 -622.3,-166.5 -146.55,-179.2 -168.66,-437.5 -49.3,-637.2 119.2,-199.4 352.8,-302.3 580.3,-261.4" /><path
         id="path68"
         style="fill:#eb55b2;fill-opacity:1;fill-rule:nonzero;stroke:none"
         d="m 9104.41,15901.6 c 64.31,-4.5 129.85,2.6 192.61,25.1 70.7,25.3 131.98,66.9 181.12,119.3 -127.26,-42.8 -251.82,-90.7 -373.73,-144.4" /><g
         transform="scale(1.00171)"
         id="g70"><path
           id="path72"
           style="fill:#eb55b2;fill-opacity:1;fill-rule:nonzero;stroke:none"
           d="m 10400.3,15105.7 c 105.9,21.9 201.1,84.3 258.3,177 61.7,100.3 72.4,223 35.2,333.8 -20.1,59.5 73.6,84.7 93.5,25.9 45.1,-134.1 29.6,-287.9 -44.9,-408.7 -69.7,-113 -186.3,-194.8 -316.4,-221.6 -61,-12.5 -86.9,81 -25.7,93.6 z m -230.1,-715.6 c 539.2,84.6 905.9,246.8 1140.4,489.6 l 12.3,12.3 c 11.9,12.7 23.2,25.9 34.3,39.1 5,5.9 10.3,11.7 15.2,17.7 10.6,12.9 20.6,26.3 30.6,39.7 4.7,6.5 9.7,12.9 14.4,19.5 9.7,13.6 18.8,27.5 27.8,41.5 4.4,6.8 8.8,13.5 13,20.4 8.7,14.3 17,28.8 25.1,43.5 3.8,6.9 7.7,13.8 11.4,20.9 8,15.1 15.6,30.5 22.9,46.1 3.2,6.7 6.2,13.5 9.3,20.3 7.3,16.3 14.3,32.8 20.9,49.5 2.5,6.3 4.9,12.7 7.3,19 6.7,17.7 13.1,35.5 19.1,53.7 1.8,5.2 3.3,10.6 5,15.8 6.1,19.7 12.1,39.6 17.5,59.9 l 2.1,8.3 c 44.5,170.6 62,361.9 57,574.5 v 2.7 c -0.7,29.5 -1.9,59.5 -3.5,89.8 l -0.2,5.4 c -3.4,62.8 -8.4,127.3 -15.1,193.6 -115.8,15.1 -232.7,23.5 -350.5,26 -50.3,1.1 -101,0.3 -151.6,-0.1 -82.4,-108.3 -201.9,-187.6 -343,-213 -177.6,-31.9 -358.5,22.1 -488.8,139.8 -124.9,-20.6 -249.1,-44.6 -371.57,-73.4 -28.11,-136.3 -57.17,-272.6 -82.97,-409.4 -13.09,-69.2 -8.23,-129 43.37,-180.3 40.33,-40 92.06,-66.9 142.17,-92.7 55.5,-28.7 6.4,-112.4 -49.02,-83.8 -124.57,64.2 -250.89,153.5 -240.22,310.5 6.1,90 32.01,180.4 49.97,268.7 10.88,53.6 21.77,107.1 32.68,160.7 -71.63,-18.3 -142.46,-37.9 -212.59,-58.9 -80.12,-143.6 -219.05,-252 -388.9,-282.6 -96.75,-17.4 -194.1,-8.1 -284.18,21.8 -82.44,-39.5 -164.37,-80.3 -245.57,-123.8 -84.48,-45.2 -185.65,-95 -272.28,-156.1 12.85,-55.1 26.34,-108.4 40.65,-159.9 1.4,-5.1 2.9,-10 4.31,-15.1 5.22,-18.5 10.55,-36.8 15.97,-54.8 2.78,-9.2 5.63,-18.2 8.47,-27.3 5.54,-17.7 11.13,-35.4 16.89,-52.6 2.67,-7.9 5.42,-15.5 8.13,-23.3 19.97,-57.8 41.47,-112.8 64.57,-165 3.82,-8.6 7.51,-17.3 11.44,-25.7 6.28,-13.7 12.84,-26.9 19.38,-40.1 4.59,-9.2 9.16,-18.5 13.87,-27.5 6.53,-12.6 13.23,-24.9 20.04,-37.1 5.1,-9.2 10.31,-18.2 15.57,-27.2 6.85,-11.6 13.76,-23.2 20.85,-34.5 5.65,-8.9 11.46,-17.6 17.29,-26.3 7.18,-10.8 14.31,-21.7 21.76,-32.1 6.35,-8.9 13.02,-17.4 19.58,-26 12.7,-16.8 25.83,-33.1 39.31,-48.8 8.02,-9.4 15.94,-18.9 24.24,-27.9 7.63,-8.3 15.63,-16.1 23.52,-24.1 7.98,-8 15.95,-16.2 24.17,-23.9 8.18,-7.7 16.61,-15.1 25.04,-22.5 8.53,-7.5 17.12,-14.9 25.91,-22 8.63,-7 17.41,-13.9 26.31,-20.7 9.2,-6.9 18.66,-13.6 28.18,-20.2 8.95,-6.3 17.9,-12.5 27.1,-18.5 10.64,-6.8 21.66,-13.3 32.65,-19.7 8.64,-5.1 17.08,-10.4 25.93,-15.2 19.35,-10.6 39.19,-20.6 59.66,-30 7.32,-3.3 15.1,-6.2 22.59,-9.4 14.38,-6.2 28.81,-12.3 43.73,-17.9 9.7,-3.7 19.79,-6.9 29.73,-10.3 13.43,-4.6 26.92,-9.1 40.8,-13.3 10.53,-3.2 21.34,-6.1 32.15,-9 14.14,-3.8 28.52,-7.4 43.11,-10.8 10.93,-2.5 21.92,-5 33.12,-7.3 15.65,-3.2 31.69,-6 47.86,-8.7 10.75,-1.8 21.36,-3.7 32.37,-5.3 19.84,-2.9 40.31,-5.2 60.93,-7.3 7.81,-0.9 15.32,-2 23.25,-2.7 23.39,-2.1 47.47,-3.6 71.85,-4.9 169,-8.6 362.05,3.9 583.93,38.7" /></g><g
         transform="scale(1.00146)"
         id="g74"><path
           id="path76"
           style="fill:#eb55b2;fill-opacity:1;fill-rule:nonzero;stroke:none"
           d="m 10438,16250.2 c 121.2,-75.3 273.3,-94.8 411.7,-45.2 59,21.1 110.5,54.4 154.7,95 -188.1,-6.6 -377.6,-23.3 -566.4,-49.8" /></g><g
         transform="scale(1.00123)"
         id="g78"><path
           id="path80"
           style="fill:#d52b68;fill-opacity:1;fill-rule:nonzero;stroke:none"
           d="m 9853.61,16238.7 c -7.14,-35 -14.24,-70 -21.35,-105 -10.92,-53.6 -21.82,-107.2 -32.7,-160.8 -17.97,-88.3 -43.9,-178.8 -50,-268.9 -10.67,-157 115.71,-246.3 240.34,-310.6 55.4,-28.6 104.6,55.2 49,83.9 -50.09,25.8 -101.84,52.7 -142.19,92.7 -51.63,51.3 -56.49,111.1 -43.4,180.4 25.82,136.9 54.89,273.2 83.01,409.6 3.64,17.7 7.35,35.3 10.95,52.9 12.39,61 -81.19,87.1 -93.66,25.8" /></g><g
         transform="scale(1.25361)"
         id="g82"><path
           id="path84"
           style="fill:#f9e089;fill-opacity:1;fill-rule:nonzero;stroke:none"
           d="m 7824.89,14097.8 c 0,0 377.12,13.4 618.02,345.4 103.22,142.3 181.56,342.7 194.24,626.3 42.28,945.3 -522.81,221.8 -522.81,221.8 -42.28,1008.7 -644.27,-190.1 -644.27,-190.1 0,0 -338.01,654.8 -507.01,-243 -53.25,-282.9 12.75,-462.9 128.02,-576.9 250.43,-247.8 733.81,-183.5 733.81,-183.5" /></g><g
         transform="scale(1.0609)"
         id="g86"><path
           id="path88"
           style="fill:#ffffff;fill-opacity:1;fill-rule:nonzero;stroke:none"
           d="m 10387.8,15386.7 c -41.7,-38.3 -90.4,-69.8 -146,-89.7 -130.6,-46.8 -274.27,-28.4 -388.61,42.7 -40.43,25.2 -77.38,56.6 -108.58,94.5 -117.92,143.3 -132.25,351.8 -37.33,510.8 94.45,158 283.34,244.4 464.72,209.7 210.6,-40.3 360.9,-225.4 363.7,-438.4 -1.7,-127.1 -57,-246.3 -147.9,-329.6 z m -1624.51,-374.3 c -59.15,-21.2 -120.93,-28 -181.55,-23.7 -120.57,8.6 -236.25,64.3 -315.67,160.9 -117.94,143.3 -132.3,351.8 -37.33,510.8 94.44,158 283.34,244.4 464.73,209.7 210.61,-40.3 360.84,-225.4 363.75,-438.4 -1.57,-115.6 -46.75,-225.2 -123.2,-306.8 -46.32,-49.5 -104.09,-88.6 -170.73,-112.5 z m 1515.11,1207.1 c -211.1,80.5 -459.89,13.5 -602.6,-161.2 -91.43,-111.9 -131.96,-255.4 -118.86,-395.2 -148.02,27.1 -302.99,0.9 -433.04,-75.7 -48.44,156.8 -165.09,286.9 -324.02,347.5 -211.04,80.5 -459.88,13.5 -602.64,-161.2 -141.86,-173.6 -163.18,-423.5 -47.63,-616.9 67.48,-112.9 173.37,-192.7 293.34,-232.5 85.06,-28.2 176.98,-37 268.33,-20.5 160.37,28.8 291.54,131.2 367.2,266.8 43.81,78.5 69.11,168.1 70.41,261.1 -0.31,21.9 -2.91,43.3 -5.72,64.6 5.18,1 10.43,2.5 15.82,5.8 121.86,75.3 270.04,99.8 409.35,65.8 l 6.98,-0.3 c 12.35,-43.6 29.03,-86.3 52.88,-126.2 27.42,-46 61.64,-86.3 100.1,-121.1 123.01,-111.1 293.8,-162.1 461.5,-131.9 133.2,23.9 246,98.8 323.9,201 70.2,92.2 112,206.6 113.7,326.9 -3.1,223.2 -139.7,423.4 -349,503.2" /></g><g
         transform="scale(1.00845)"
         id="g90"><path
           id="path92"
           style="fill:#d52b68;fill-opacity:1;fill-rule:nonzero;stroke:none"
           d="m 9126.58,16290.3 c -41.05,-9.7 -56.51,-92.6 -34.63,-185.3 21.87,-92.6 72.89,-159.8 113.91,-150.1 41.01,9.7 56.53,92.6 34.61,185.3 -21.87,92.6 -72.9,159.8 -113.89,150.1" /></g><g
         transform="scale(1.0279)"
         id="g94"><path
           id="path96"
           style="fill:#d52b68;fill-opacity:1;fill-rule:nonzero;stroke:none"
           d="m 10415,16290.5 c -40.3,-9.5 -55.5,-90.9 -34,-181.8 21.4,-90.8 71.5,-156.8 111.7,-147.3 40.3,9.5 55.5,90.9 34.1,181.8 -21.6,90.9 -71.6,156.8 -111.8,147.3" /></g><path
         id="path98"
         style="fill:#d52b68;fill-opacity:1;fill-rule:nonzero;stroke:none"
         d="m 10443.9,15037.9 c 130.3,26.8 247.1,108.7 316.9,222 74.6,121 90.2,275 45,409.3 -19.9,59 -113.8,33.7 -93.7,-25.9 37.3,-111 26.6,-234 -35.2,-334.4 -57.3,-92.8 -152.7,-155.4 -258.8,-177.3 -61.3,-12.6 -35.3,-106.3 25.8,-93.7" /><path
         id="path100"
         style="fill:#f9a72b;fill-opacity:1;fill-rule:nonzero;stroke:none"
         d="m 7455.48,10209 c 27.32,-16.5 74.47,-3.8 77.98,39.1 49.57,607.1 183.04,1203.7 394.82,1774.7 21.78,58.8 -72.17,84.1 -93.76,25.9 -214.86,-579.4 -348.03,-1184.8 -398.3,-1800.6 l 0.89,-7.2 c 0.93,-15 7.92,-25.6 18.37,-31.9" /><path
         id="path102"
         style="fill:#f9a72b;fill-opacity:1;fill-rule:nonzero;stroke:none"
         d="m 13658.8,9880.7 c -1.3,25.7 -3.6,51.4 -5.1,77.1 -37.9,640.7 -158.5,1273.5 -361.8,1882.6 -19.7,59.1 -113.6,33.7 -93.7,-25.9 208.7,-625.4 331.3,-1275.2 363.4,-1933.8 1.8,-38.2 39,-52.9 66.9,-44.3 17.6,5.5 31.5,20 30.3,44.3" /><path
         id="path104"
         style="fill:#f9a72b;fill-opacity:1;fill-rule:nonzero;stroke:none"
         d="m 10441.7,12836.4 c -555.71,-0.8 -1109.05,247.3 -1397.83,736.8 -31.78,53.8 -115.86,5 -83.95,-49.1 312.51,-529.7 915.61,-795.6 1516.88,-784.6 587.1,10.6 1310.7,241.1 1528.6,844.9 l 1.2,8.3 c 9.5,52.6 -74.9,73.1 -95,17.6 l -1.8,-4.2 c -207.6,-566.3 -922.1,-769 -1468.1,-769.7" /></g></g></svg>