<?xml version="1.0" encoding="UTF-8" standalone="no"?>
<svg
   xmlns:dc="http://purl.org/dc/elements/1.1/"
   xmlns:cc="http://creativecommons.org/ns#"
   xmlns:rdf="http://www.w3.org/1999/02/22-rdf-syntax-ns#"
   xmlns:svg="http://www.w3.org/2000/svg"
   xmlns="http://www.w3.org/2000/svg"
   viewBox="0 0 601.33331 601.33331"
   height="601.33331"
   width="601.33331"
   xml:space="preserve"
   id="svg2"
   version="1.1"><metadata
     id="metadata8"><rdf:RDF><cc:Work
         rdf:about=""><dc:format>image/svg+xml</dc:format><dc:type
           rdf:resource="http://purl.org/dc/dcmitype/StillImage" /></cc:Work></rdf:RDF></metadata><defs
     id="defs6" /><g
     transform="matrix(1.3333333,0,0,-1.3333333,0,601.33333)"
     id="g10"><g
       transform="scale(0.1)"
       id="g12"><path
         id="path14"
         style="fill:#ff9292;fill-opacity:1;fill-rule:nonzero;stroke:none"
         d="m 2837.75,745.832 c 39.63,9.719 299.72,75.309 297.65,161.547 -0.41,16.832 -11.07,45.961 -80.09,80.34 -45.91,41.411 -91.82,82.821 -137.73,124.231 l -36.52,32.83 -9,7.67 -35.52,31.99 -10.39,9.42 -36.52,32.84 -10.39,9.43 -35.19,31.69 -10.05,9.15 -34.52,31.13 -10.73,9.71 -36.51,32.83 c -3.52,1.27 -5.53,2.98 -6.68,5.68 l -41.23,37.44 -4.67,3.98 -90.49,81.67 c -24.63,21.09 -49.27,42.18 -73.9,63.26 -68.1,-83.54 -136.2,-167.08 -204.3,-250.61 l 8.72,-8.01 39.52,-35.39 558.54,-502.828" /><path
         id="path16"
         style="fill:#ff9292;fill-opacity:1;fill-rule:nonzero;stroke:none"
         d="m 2873.17,589.012 c 10.72,-9.793 24.62,-10.731 35.2,-9.973 162.55,146.672 326.34,293.293 489.22,440.251 28.11,25.07 56.24,50.76 84.34,75.83 -7.64,16.16 -15.42,29.22 -23.3,39.8 -13.74,18.29 -28.43,29.19 -40.5,36.55 -85.41,50.68 -227.98,10.04 -357.02,-108.4 -11.96,-10.93 -23.33,-22.5 -35.03,-34.37 -2.91,-2.65 -5.2,-5.34 -8.11,-8 -12.99,-13.05 -26.63,-26.68 -39.94,-40.028 -4.23,-4.453 -8.43,-8.293 -12.67,-12.75 -50.66,-51.012 -102.27,-102.301 -153.58,-153.902 -7.14,-7.122 -14.28,-14.231 -21.43,-21.34 3.84,-4.2 7.33,-9.321 10.23,-13.789 18.4,-24.711 31.38,-46.063 40.76,-64.77 7.66,-15.539 12.94,-29.101 15.82,-40.699 0.54,-1.883 1.04,-4.391 1.52,-7.512 0.77,-3.449 1.28,-5.949 1.76,-9.07 0.93,-6.86 0.94,-13.371 0.07,-18.91 -0.01,-7.129 -1.53,-26.891 6.54,-40.282 1.72,-3.179 3.43,-6.347 6.12,-8.636" /><path
         id="path18"
         style="fill:#232996;fill-opacity:1;fill-rule:nonzero;stroke:none"
         d="m 2873.17,589.012 c 10.72,-9.793 24.62,-10.731 35.2,-9.973 162.55,146.672 326.34,293.293 489.22,440.251 28.11,25.08 56.24,50.76 84.04,76.15 -7.34,15.84 -15.12,28.9 -23,39.48 -13.74,18.29 -28.43,29.19 -40.5,36.55 -85.41,50.68 -227.98,10.04 -357.02,-108.4 -11.96,-10.93 -23.33,-22.5 -35.03,-34.37 -2.91,-2.65 -5.2,-5.34 -8.11,-8 43.22,-22.919 90.42,-53.802 85.77,-80.509 -3.87,-22.23 -45.86,-13.82 -87.54,-47.421 -53.07,-42.77 -36.15,-96.18 -87.7,-141.418 -25.21,-22.133 -56.04,-32.852 -87.16,-37.231 11.28,-26.371 14.76,-36.98 15.82,-40.699 0.54,-1.883 1.04,-4.391 1.52,-7.512 0.77,-3.449 1.28,-5.949 1.76,-9.07 0.93,-6.86 0.94,-13.371 0.07,-18.91 -0.01,-7.129 -1.53,-26.891 6.54,-40.282 1.72,-3.179 3.43,-6.347 6.12,-8.636" /><path
         id="path20"
         style="fill:#ff9292;fill-opacity:1;fill-rule:nonzero;stroke:none"
         d="m 2468.69,2158.95 c -66.9,-41.45 -167.97,-91.39 -298.84,-112.58 -104.02,-16.84 -195.07,-10.37 -263.42,0.87 -34.95,0.96 -66.67,28.43 -77.89,65.72 -13.59,45.19 5.13,97.36 45.25,114.1 186.41,36.95 372.8,73.91 559.2,110.86 32.9,-38.83 65.79,-77.66 98.68,-116.48 -20.99,-20.83 -41.98,-41.66 -62.98,-62.49" /><path
         id="path22"
         style="fill:#ff9292;fill-opacity:1;fill-rule:nonzero;stroke:none"
         d="m 1592.13,2419.91 c 29.71,-67.14 81.36,-106.12 143.38,-149.71 9.78,-6.97 20,-13.76 30.41,-20.99 9.59,-6.52 19.36,-13.5 29.39,-19.84 26.86,-18.78 55.69,-37.28 86.35,-57.64 44.45,-29.34 91.97,-58.44 142.22,-89.05 28.37,59.33 56.37,119.56 85.2,179.08 -44.58,37.19 -93.05,74.86 -146.04,113.28 -9.32,7.16 -18.91,13.68 -28.69,20.66 -13.33,9.17 -27.29,18.6 -40.89,27.14 -109.15,71.8 -213.52,127.17 -308.04,170.31 -2.19,-3.55 -4.28,-8.64 -6.89,-15.01 -26.9,-66.62 3.94,-136.45 13.6,-158.23" /><path
         id="path24"
         style="fill:#fc6565;fill-opacity:1;fill-rule:nonzero;stroke:none"
         d="m 1765.92,2249.21 c 9.59,-6.52 19.36,-13.5 29.39,-19.84 26.86,-18.78 55.69,-37.28 86.35,-57.64 28.25,67.19 55.04,135.34 81.38,203.31 -65.32,-41.61 -131.35,-84.04 -197.12,-125.83" /><path
         id="path26"
         style="fill:#ffca22;fill-opacity:1;fill-rule:nonzero;stroke:none"
         d="m 1834.65,2165.21 c 44.34,72.39 88.68,144.78 133.02,217.17 -74.38,66.37 -148.75,132.74 -223.13,199.11 -66.46,-9.95 -121.6,-55.81 -141.88,-118.16 -27.95,-85.95 25.6,-156.42 30.01,-162.03 67.33,-45.36 134.65,-90.73 201.98,-136.09" /><path
         id="path28"
         style="fill:#ff9292;fill-opacity:1;fill-rule:nonzero;stroke:none"
         d="m 1229.7,1549.88 c 10.21,-5.83 45.7,-23.82 110.85,-2.92 l 14.09,-0.97 39.38,-2.43 139.04,-8.75 27.71,-1.94 83.13,-5.35 c 0,0.48 232.38,-14.59 232.38,-14.59 l 8.75,-0.48 68.55,-4.86 c 1.94,0 126.88,-7.78 126.88,-7.78 0.49,0 24.31,-1.46 24.31,-1.46 l 19.93,304.82 -21.39,0.97 c -0.48,0 -25.76,1.94 -25.76,1.94 l -20.91,1.46 -26.25,1.46 -11.18,0.97 c -0.49,0 -67.09,4.38 -67.09,4.38 l -8.75,0.48 h -5.35 l -19.44,1.46 -17.02,0.97 -21.39,1.46 -75.35,4.87 -20.42,0.97 c -0.49,0 -19.45,1.45 -19.45,1.45 l -20.9,1.46 -22.85,1.46 -94.8,5.84 -17.02,0.97 -31.6,1.94 -69.03,4.38 -11.67,0.97 -22.36,1.46 -73.89,5.35 -34.52,1.94 -5.84,0.49 c -7.77,-7.29 -29.16,-27.23 -62.71,-31.6 -51.04,-6.81 -86.53,27.22 -91.39,31.6 -65.15,-138.07 -41.81,-264.96 23.33,-302.39" /><path
         id="path30"
         style="fill:#ff9292;fill-opacity:1;fill-rule:nonzero;stroke:none"
         d="m 1589.89,1767.38 c -26.07,-7.7 -55.88,-13.82 -88.96,-16.16 -141.19,-9.99 -251.12,55.39 -299.72,89.18 58.03,197.15 147.13,421.94 286.61,652.77 35.59,58.88 72.06,114.2 108.8,166.06 52.55,-20.79 105.09,-41.57 157.64,-62.36 -54.79,-276.49 -109.58,-552.99 -164.37,-829.49" /><path
         id="path32"
         style="fill:#ff9292;fill-opacity:1;fill-rule:nonzero;stroke:none"
         d="m 1594.31,2655.88 c 25.77,-9.73 52.02,-20.42 77.3,-30.15 9.73,-3.89 19.94,-8.26 29.66,-12.15 16.53,-6.32 33.05,-12.64 49.59,-19.45 0.97,-0.48 1.94,-0.48 2.91,-0.97 0,1.46 0.49,1.94 0.49,3.4 2.91,12.64 6.32,24.79 9.72,36.95 3.4,13.13 6.32,25.77 9.72,38.41 1.46,5.83 2.92,12.15 4.38,17.99 4.38,15.06 7.78,29.16 11.67,43.26 1.94,8.26 3.4,16.04 5.83,23.34 2.92,13.12 6.81,26.25 10.21,39.86 -4.86,1.94 -9.24,3.89 -14.1,6.32 -25.28,10.7 -51.04,20.91 -76.32,32.09 -13.13,-17.99 -25.77,-35.98 -37.92,-54.45 -9.24,-13.13 -17.5,-26.26 -26.74,-39.87 -0.49,-1.45 -1.46,-2.91 -2.92,-4.37 -9.72,-14.59 -18.96,-29.17 -28.68,-43.75 -8.75,-12.16 -16.53,-24.31 -24.8,-36.46" /><path
         id="path34"
         style="fill:#ff9292;fill-opacity:1;fill-rule:nonzero;stroke:none"
         d="m 2458.96,2117.56 c -66.9,-41.45 -167.98,-91.38 -298.85,-112.57 -104.01,-16.84 -195.06,-10.37 -263.42,0.86 -34.95,0.97 -66.66,28.43 -77.88,65.72 -13.6,45.19 5.13,97.37 45.25,114.11 186.4,36.95 372.8,73.9 559.2,110.86 l 35.7,-178.98" /><path
         id="path36"
         style="fill:#ff9292;fill-opacity:1;fill-rule:nonzero;stroke:none"
         d="m 1985.55,1641.87 c -0.28,-13.62 1.57,-27.29 5.12,-40.99 3.14,-12.84 8.42,-25.29 14.98,-37.35 1.24,-2.16 2.47,-3.89 4.14,-6.05 45.3,-74.18 145.32,-97.54 226.32,-51.95 59.88,33.25 93.1,95.17 90.52,156.11 l -2.11,21.34 c 0.02,0.85 0.04,1.7 -0.37,2.56 -3.07,16.24 -8.7,32.12 -16.91,47.19 -3.7,6.47 -7.82,12.95 -12.39,18.57 -12.03,15.58 -26.66,28.66 -43.06,38.79 -3.79,2.21 -8,4.43 -12.22,6.22 -48.89,24.43 -110.21,24.42 -163.21,-5.57 -18.53,-10.26 -34.12,-23.14 -47.21,-38.2 -27.9,-31.36 -43.2,-70.65 -43.6,-110.67" /><path
         id="path38"
         style="fill:#ff9292;fill-opacity:1;fill-rule:nonzero;stroke:none"
         d="m 2098.99,1501.35 c -0.29,-13.62 1.56,-27.28 5.11,-40.98 3.15,-12.84 8.42,-25.3 14.99,-37.36 1.23,-2.15 2.47,-3.88 4.13,-6.04 45.31,-74.19 145.32,-97.55 226.33,-51.96 59.87,33.26 93.1,95.17 90.52,156.12 l -2.11,21.33 c 0.01,0.86 0.03,1.71 -0.37,2.57 -3.07,16.24 -8.71,32.12 -16.92,47.19 -3.69,6.47 -7.82,12.94 -12.39,18.57 -12.02,15.58 -26.66,28.66 -43.05,38.79 -3.79,2.21 -8,4.42 -12.22,6.21 -48.9,24.44 -110.22,24.43 -163.22,-5.57 -18.52,-10.26 -34.12,-23.14 -47.21,-38.2 -27.9,-31.36 -43.19,-70.64 -43.59,-110.67" /><path
         id="path40"
         style="fill:#ff9292;fill-opacity:1;fill-rule:nonzero;stroke:none"
         d="m 2087.21,768.449 c 35.83,-19.539 272.11,-146.5 328.73,-81.418 11.06,12.688 22.83,41.399 -4.95,113.328 -5.98,61.532 -11.96,123.071 -17.94,184.602 l -4.82,48.869 -1.48,11.75 -4.66,47.56 -1.31,13.97 -4.83,48.87 -1.31,13.97 -4.61,47.13 -1.26,13.54 -4.5,46.26 -1.36,14.41 -4.83,48.87 c -1.74,3.31 -2.07,5.92 -1.09,8.69 l -5.21,55.45 -0.77,6.09 -11.74,121.33 c -3.97,32.18 -7.94,64.36 -11.91,96.54 -106.62,-15.76 -213.24,-31.52 -319.86,-47.29 l 1.04,-11.79 5.32,-52.79 73.35,-747.941" /><path
         id="path42"
         style="fill:#ff9292;fill-opacity:1;fill-rule:nonzero;stroke:none"
         d="m 2007.62,628.762 c 1.31,-14.453 10.94,-24.52 19.27,-31.09 218.93,-1.313 438.75,-3.5 658.13,-4.813 37.66,-0.437 75.75,-0.437 113.41,-0.879 5.26,17.071 8.32,31.969 9.64,45.102 2.19,22.77 -1.32,40.727 -5.26,54.297 -28.9,95.019 -161.58,161.141 -336.73,160.703 -16.2,0 -32.4,-0.871 -49.04,-1.754 -3.94,0 -7.45,-0.437 -11.39,-0.437 -18.39,-0.871 -37.65,-1.75 -56.48,-2.629 -6.13,-0.43 -11.83,-0.43 -17.96,-0.871 -71.81,-3.5 -144.5,-6.571 -217.19,-10.071 -10.06,-0.441 -20.14,-0.879 -30.21,-1.32 0,-5.691 -0.87,-11.82 -1.75,-17.07 -3.06,-30.66 -7.89,-55.18 -13.58,-75.321 -4.81,-16.64 -10.07,-30.211 -15.76,-40.718 -0.87,-1.75 -2.19,-3.942 -3.94,-6.571 -1.76,-3.058 -3.07,-5.25 -4.82,-7.879 -3.94,-5.699 -8.32,-10.511 -12.69,-14.011 -4.82,-5.258 -19.27,-18.828 -22.34,-34.16 -0.87,-3.5 -1.75,-7.008 -1.31,-10.508" /><path
         id="path44"
         style="fill:#232996;fill-opacity:1;fill-rule:nonzero;stroke:none"
         d="m 2007.62,628.762 c 1.31,-14.453 10.94,-24.52 19.27,-31.09 218.93,-1.313 438.75,-3.5 658.13,-4.813 37.66,-0.437 75.75,-0.437 113.41,-0.437 5.26,16.629 8.32,31.527 9.64,44.66 2.19,22.77 -1.32,40.727 -5.26,54.297 -28.9,95.019 -161.58,161.141 -336.73,160.703 -16.2,0 -32.4,-0.871 -49.04,-1.754 -3.94,0 -7.45,-0.437 -11.39,-0.437 16.46,-46.071 30.49,-100.7 9.04,-117.289 -17.84,-13.801 -43.17,20.718 -96.61,24.019 -68.03,4.211 -91.56,-46.652 -160.14,-45.289 -33.53,0.668 -63.52,13.539 -89.46,31.277 -9.45,-27.078 -14.03,-37.257 -15.76,-40.718 -0.87,-1.75 -2.19,-3.942 -3.94,-6.571 -1.76,-3.058 -3.07,-5.25 -4.82,-7.879 -3.94,-5.699 -8.32,-10.511 -12.69,-14.011 -4.82,-5.258 -19.27,-18.828 -22.34,-34.16 -0.87,-3.5 -1.75,-7.008 -1.31,-10.508" /><path
         id="path46"
         style="fill:#fc6565;fill-opacity:1;fill-rule:nonzero;stroke:none"
         d="m 1720.23,2806.58 c 17.99,-44.73 35.48,-89.94 53.47,-134.66 1.46,5.83 2.92,12.15 4.38,17.99 4.38,15.06 7.78,29.16 11.67,43.26 1.94,8.26 3.4,16.04 5.83,23.34 2.92,13.12 6.81,26.25 10.21,39.86 -4.86,1.94 -9.24,3.89 -14.1,6.32 -23.82,0.97 -47.64,2.43 -71.46,3.89" /><path
         id="path48"
         style="fill:#ff9292;fill-opacity:1;fill-rule:nonzero;stroke:none"
         d="m 1711.53,2886.18 c -9.11,-80.66 34.55,-151.96 96.57,-158.5 52.46,-5.84 101.58,35.83 120.88,96.92 3.63,11.35 6.53,23.56 7.86,36.28 0.06,0.8 1.05,14.35 1.05,14.35 0.88,33.98 -6.44,65.37 -21.03,90.48 -17.4,30.52 -44.72,51.34 -76.91,54.9 l -6.77,0.5 c -53.94,1.94 -103.14,-46.14 -118.05,-113.16 -1.73,-7.08 -2.65,-14.23 -3.6,-21.77" /><path
         id="path50"
         style="fill:#ff9292;fill-opacity:1;fill-rule:nonzero;stroke:none"
         d="m 1892.69,2778.9 c 5.3,3.51 10.6,7.02 15.9,10.53 13.61,11.71 27.23,23.43 40.85,35.14 0.66,2.27 1.18,5.5 -0.37,8.2 -2.73,4.74 -10.24,5.01 -13.26,5.2 -8.37,0.53 -20.87,2.86 -39.67,10.57 -1.15,-23.21 -2.3,-46.43 -3.45,-69.64" /><path
         id="path52"
         style="fill:#fc6565;fill-opacity:1;fill-rule:nonzero;stroke:none"
         d="m 1777.75,2856.92 c -0.55,-16.06 12.03,-29.53 28.09,-30.08 16.06,-0.55 29.53,12.03 30.08,28.09 0.55,16.07 -12.02,29.53 -28.09,30.09 -16.06,0.55 -29.53,-12.03 -30.08,-28.1" /><path
         id="path54"
         style="fill:#f4f4f7;fill-opacity:1;fill-rule:nonzero;stroke:none"
         d="m 1853.58,2877.32 c -1.29,-11.26 15.75,-20.88 27.49,-24.41 7.3,-2.39 14.97,-3.29 21.28,-3.32 1.61,0.11 2.73,0.35 3.84,0.6 5.45,0.71 10.17,2.67 12.04,5.88 4.13,7.91 -2.48,23.29 -14.94,32.27 -0.74,1.24 -1.23,1.36 -2.1,2.11 -3.21,1.88 -7.04,3.38 -11.49,4.52 -1.49,0.38 -2.6,0.13 -3.59,0.39 -1.98,0.5 -3.58,0.38 -5.19,0.27 -13.51,-1.29 -26.68,-9.53 -27.34,-18.31" /><path
         id="path56"
         style="fill:#232996;fill-opacity:1;fill-rule:nonzero;stroke:none"
         d="m 1880.72,2882.5 c -2.65,-10.38 -2.08,-20.53 0.35,-29.59 7.3,-2.39 14.97,-3.29 21.28,-3.32 1.61,0.11 2.73,0.35 3.84,0.6 5.45,0.71 10.17,2.67 12.04,5.88 4.13,7.91 -2.48,23.29 -14.94,32.27 -0.74,1.24 -1.23,1.36 -2.1,2.11 -3.21,1.88 -7.04,3.38 -11.49,4.52 -1.49,0.38 -2.6,0.13 -3.59,0.39 -2.49,-3.58 -4.25,-8.4 -5.39,-12.86" /><path
         id="path58"
         style="fill:#f4f4f7;fill-opacity:1;fill-rule:nonzero;stroke:none"
         d="m 1841.05,2789.72 c -4.42,-2.33 -4.14,-22.3 7.81,-29.27 10.17,-5.93 25.22,-0.37 25.99,4.73 0.37,2.38 -2.56,3.64 -20.55,16.61 -10.05,7.25 -11.74,8.73 -13.25,7.93" /><path
         id="path60"
         style="fill:#232996;fill-opacity:1;fill-rule:nonzero;stroke:none"
         d="m 3359.8,585.461 c -3.11,0 -5.87,2.219 -6.43,5.379 l -243.75,1363.45 c -0.64,3.55 1.74,6.94 5.28,7.57 3.47,0.72 6.94,-1.7 7.58,-5.27 L 3366.23,593.129 c 0.63,-3.539 -1.74,-6.93 -5.28,-7.57 -0.39,-0.079 -0.77,-0.098 -1.15,-0.098" /><path
         id="path62"
         style="fill:#232996;fill-opacity:1;fill-rule:nonzero;stroke:none"
         d="m 1888.15,585.461 c -4.69,0.738 -7.07,4.129 -6.43,7.668 l 243.73,1363.461 c 0.61,3.57 4,5.99 7.57,5.27 3.55,-0.63 5.92,-4.02 5.28,-7.57 L 1894.58,590.84 c -0.56,-3.16 -3.32,-5.379 -6.43,-5.379" /><path
         id="path64"
         style="fill:#84dbef;fill-opacity:1;fill-rule:nonzero;stroke:none"
         d="m 1905.92,1916.83 h 1467.56 c 27.1,0 49.27,22.17 49.27,49.27 0,27.09 -22.17,49.26 -49.27,49.26 H 1905.92 c -27.09,0 -49.26,-22.17 -49.26,-49.26 0,-27.1 22.17,-49.27 49.26,-49.27" /><path
         id="path66"
         style="fill:#232996;fill-opacity:1;fill-rule:nonzero;stroke:none"
         d="m 2847.44,2021.76 5.82,-1.6 c 9.74,-2.69 19.91,3.08 22.59,12.82 l 187.82,680.68 c 2.69,9.74 -3.08,19.91 -12.82,22.6 l -5.83,1.6 c -9.73,2.69 -19.9,-3.08 -22.59,-12.82 l -187.82,-680.68 c -2.68,-9.74 3.09,-19.91 12.83,-22.6" /><path
         id="path68"
         style="fill:#232996;fill-opacity:1;fill-rule:nonzero;stroke:none"
         d="m 2138.23,2015.36 h 697.48 c 11.41,0 20.74,9.34 20.74,20.74 0,11.41 -9.33,20.74 -20.74,20.74 h -697.48 c -11.42,0 -20.75,-9.33 -20.75,-20.74 0,-11.4 9.33,-20.74 20.75,-20.74" /><path
         id="path70"
         style="fill:#ff9292;fill-opacity:1;fill-rule:nonzero;stroke:none"
         d="m 2458.96,2117.56 c 12.35,-5.47 25.16,-11.6 38.31,-18.5 26.07,-13.69 49.16,-28.1 69.34,-42.22 13.17,-1.68 26.34,-3.37 39.5,-5.05 10.28,-6.46 24.39,56.87 -15.19,155.22 -5.92,6.89 -12.48,13.77 -19.75,20.5 -49.45,45.82 -107.73,62.47 -147.91,69.03 11.9,-59.66 23.8,-119.32 35.7,-178.98" /><path
         id="path72"
         style="fill:#ff9292;fill-opacity:1;fill-rule:nonzero;stroke:none"
         d="m 2449.22,2271.79 h 59.48 c 7.99,-2.4 34.51,-9.25 60.95,4.34 4.22,2.16 25.1,12.9 23.55,22.03 -1.32,7.74 -18.99,15.63 -89.63,16.71 -27.57,-6.27 -55.14,-12.54 -82.71,-18.81 9.45,-8.09 18.91,-16.19 28.36,-24.27" /><path
         id="path74"
         style="fill:#fc6565;fill-opacity:1;fill-rule:nonzero;stroke:none"
         d="m 1876.28,1512.93 8.75,-0.48 68.55,-4.86 c 0.49,102.09 -0.49,204.18 -1.46,306.76 -16.53,-35 -33.54,-70.01 -50.07,-105.01 -8.27,-65.63 -17.51,-130.78 -25.77,-196.41" /><path
         id="path76"
         style="fill:#ff2468;fill-opacity:1;fill-rule:nonzero;stroke:none"
         d="m 1205.39,1530.19 c 229.57,-10.13 459.15,-20.26 688.72,-30.38 20.25,110.06 40.51,220.12 60.77,330.18 -202.23,7.45 -404.46,14.91 -606.68,22.36 -10.93,3.24 -106.19,30.01 -166.33,-21.44 -66.51,-56.9 -72.87,-194.79 23.52,-300.72" /><path
         id="path78"
         style="fill:#ffca22;fill-opacity:1;fill-rule:nonzero;stroke:none"
         d="m 1124.21,1848.38 c 51.04,-17.51 112.78,-33.55 184.74,-41.81 55.9,-6.81 108.4,-7.29 156.53,-4.38 75.84,3.89 140.5,17.5 189.6,30.63 20.91,160.43 41.81,320.37 62.23,480.8 12.64,94.31 24.79,189.12 36.95,283.43 -52.5,20.42 -105.01,41.32 -157.52,62.23 -27.7,-24.31 -54.45,-50.08 -81.67,-77.79 -227.52,-235.3 -336.42,-510.95 -390.86,-733.11" /><path
         id="path80"
         style="fill:#232996;fill-opacity:1;fill-rule:nonzero;stroke:none"
         d="m 1742.3,2891.2 c 9.65,-4.1 23,-7.75 35.47,-2.75 10.34,4.15 15.14,12.26 20.01,18.19 9.29,11.31 26.47,23.99 61.2,29.17 9.12,-6.26 24.41,-15.12 45.18,-20.02 22.74,-5.37 41.91,-3.61 53.19,-1.72 30.54,33.33 33.18,47.89 29.17,54.91 -3.25,5.7 -10.38,5.58 -20.01,14.3 -9.51,8.6 -14.06,19.12 -16.43,26.63 -3.74,-1.99 -9.48,-4.5 -16.75,-5.47 -22.95,-3.04 -39.48,12.27 -53.76,20.02 -33.78,18.33 -79.94,7.97 -106.95,-7.43 -47.68,-27.19 -57.46,-82.49 -58.91,-91.51 -5.8,-58.87 -5.57,-88.95 0.68,-90.25 5.18,-1.09 14.48,17.56 27.91,55.93" /><path
         id="path82"
         style="fill:#ff9292;fill-opacity:1;fill-rule:nonzero;stroke:none"
         d="m 1777.68,2890.62 c -0.96,-17.21 -14.34,-30.47 -29.89,-29.6 -15.56,0.86 -27.39,15.52 -26.44,32.73 0.96,17.21 14.34,30.47 29.9,29.6 15.55,-0.86 27.38,-15.51 26.43,-32.73" /><path
         id="path84"
         style="fill:#f74f4f;fill-opacity:1;fill-rule:nonzero;stroke:none"
         d="m 1990.81,2202.02 c -2.11,0 -4.21,1.05 -5.46,2.93 l -67.86,103.12 c -1.99,3.01 -1.15,7.07 1.86,9.06 3.04,1.94 7.07,1.12 9.06,-1.86 l 67.86,-103.12 c 1.99,-3.01 1.15,-7.07 -1.86,-9.06 -1.12,-0.71 -2.35,-1.07 -3.6,-1.07" /><path
         id="path86"
         style="fill:#f74f4f;fill-opacity:1;fill-rule:nonzero;stroke:none"
         d="m 1990.1,2206.56 c -3.09,0 -5.82,2.19 -6.43,5.33 -0.66,3.52 1.68,6.94 5.23,7.63 l 459.02,86.67 c 3.75,0.81 6.95,-1.71 7.63,-5.23 0.66,-3.53 -1.68,-6.94 -5.23,-7.63 l -459.02,-86.67 c -0.41,-0.08 -0.82,-0.1 -1.2,-0.1" /><path
         id="path88"
         style="fill:#ff9292;fill-opacity:1;fill-rule:nonzero;stroke:none"
         d="m 1598.2,2494.47 c 2.44,-72.43 34.52,-127.86 74.38,-191.06 6.32,-10.21 13.13,-20.42 19.94,-31.11 6.31,-9.72 12.64,-19.93 19.44,-29.65 11.67,-18.48 23.82,-36.46 36.95,-55.91 6.8,-10.21 13.61,-19.94 20.42,-30.63 29.65,-44.24 62.23,-89.45 96.74,-137.09 49.1,43.75 98.21,88.48 147.79,132.23 -26.74,51.53 -56.88,104.52 -90.91,160.43 -5.83,10.69 -12.15,20.42 -18.47,30.63 -8.75,13.61 -17.99,27.71 -27.23,40.84 -49.58,73.4 -99.66,139.03 -149.24,197.37 -23.82,-1.94 -68.06,-10.7 -103.07,-47.64 -11.18,-11.67 -19.93,-24.31 -26.74,-38.41" /><path
         id="path90"
         style="fill:#fc6565;fill-opacity:1;fill-rule:nonzero;stroke:none"
         d="m 1692.52,2272.3 c 6.31,-9.72 12.64,-19.93 19.44,-29.65 17.5,-27.71 36.95,-55.91 57.37,-86.54 52.02,51.05 103.06,103.55 153.62,156.05 -76.33,-13.12 -153.62,-26.73 -230.43,-39.86" /><path
         id="path92"
         style="fill:#ffca22;fill-opacity:1;fill-rule:nonzero;stroke:none"
         d="m 1589.94,2371.96 c 44.24,-68.06 88.96,-135.64 133.69,-203.7 8.26,5.84 17.02,12.16 25.28,18.48 57.37,41.32 114.73,82.64 172.58,123.97 3.89,2.91 6.32,4.37 8.75,6.31 -61.74,88.48 -123.96,176.48 -185.7,264.47 -2.44,0 -8.27,0 -16.53,-0.97 -23.82,-1.94 -68.06,-10.7 -103.07,-47.64 -11.18,-11.67 -19.93,-24.31 -26.74,-38.41 -17.98,-36.95 -21.38,-80.7 -8.26,-122.51" /><path
         id="path94"
         style="fill:#232996;fill-opacity:1;fill-rule:nonzero;stroke:none"
         d="m 1723.15,652.238 c 0,-33.277 26.97,-60.258 60.26,-60.258 33.28,0 60.26,26.981 60.26,60.258 0,33.282 -26.98,60.262 -60.26,60.262 -33.29,0 -60.26,-26.98 -60.26,-60.262" /><path
         id="path96"
         style="fill:#232996;fill-opacity:1;fill-rule:nonzero;stroke:none"
         d="m 1150.11,1414.76 h 638.43 c 35.49,0 64.53,29.04 64.53,64.52 0,35.5 -29.04,64.53 -64.53,64.53 h -638.43 c -35.49,0 -64.53,-29.03 -64.53,-64.52 0,-35.49 29.04,-64.53 64.53,-64.53" /><path
         id="path98"
         style="fill:#232996;fill-opacity:1;fill-rule:nonzero;stroke:none"
         d="m 1443.4,679.43 h 51.85 v 762.65 H 1443.4 V 679.43" /><path
         id="path100"
         style="fill:#232996;fill-opacity:1;fill-rule:nonzero;stroke:none"
         d="m 1778.65,610.102 c -4.79,0.82 -7.12,4.257 -6.4,7.808 19.08,96.672 -21.18,192.391 -100.17,238.192 -86.41,50.046 -177.36,15.296 -194.71,7.75 -3.31,-1.403 -7.12,0.078 -8.57,3.418 -1.43,3.289 0.1,7.14 3.42,8.57 18.37,7.961 114.65,44.75 206.39,-8.469 83.84,-48.551 126.6,-149.832 106.44,-252.012 -0.61,-3.109 -3.34,-5.257 -6.4,-5.257" /><path
         id="path102"
         style="fill:#232996;fill-opacity:1;fill-rule:nonzero;stroke:none"
         d="m 1414.54,652.238 c 0,-33.277 26.98,-60.258 60.26,-60.258 33.29,0 60.26,26.981 60.26,60.258 0,33.282 -26.97,60.262 -60.26,60.262 -33.28,0 -60.26,-26.98 -60.26,-60.262" /><path
         id="path104"
         style="fill:#232996;fill-opacity:1;fill-rule:nonzero;stroke:none"
         d="m 1165.48,610.102 c -3.06,0 -5.79,2.148 -6.41,5.257 -20.15,102.18 22.61,203.461 106.45,252.012 91.79,53.219 188.05,16.41 206.39,8.469 3.32,-1.43 4.85,-5.281 3.42,-8.57 -1.46,-3.321 -5.33,-4.77 -8.57,-3.418 -17.35,7.429 -108.26,42.23 -194.71,-7.782 -79,-45.769 -119.25,-141.488 -100.17,-238.16 0.71,-3.551 -1.61,-6.988 -5.13,-7.68 -0.43,-0.082 -0.86,-0.128 -1.27,-0.128" /><path
         id="path106"
         style="fill:#232996;fill-opacity:1;fill-rule:nonzero;stroke:none"
         d="m 1220.98,652.238 c 0,-33.277 -26.98,-60.258 -60.26,-60.258 -33.28,0 -60.26,26.981 -60.26,60.258 0,33.282 26.98,60.262 60.26,60.262 33.28,0 60.26,-26.98 60.26,-60.262" /><path
         id="path108"
         style="fill:#f74f4f;fill-opacity:1;fill-rule:nonzero;stroke:none"
         d="m 2375.37,1155.56 c -3.35,0 -6.18,2.53 -6.51,5.9 l -48.73,499.53 c -0.36,3.6 2.27,6.79 5.87,7.15 3.85,0.36 6.78,-2.3 7.14,-5.87 l 48.73,-499.54 c 0.36,-3.59 -2.27,-6.78 -5.86,-7.14 -0.23,-0.03 -0.44,-0.03 -0.64,-0.03" /><path
         id="path110"
         style="fill:#84dbef;fill-opacity:1;fill-rule:nonzero;stroke:none"
         d="m 2429.89,3391.11 c 0,56.12 45.48,101.84 101.83,101.84 56.35,0 101.84,-45.72 101.84,-101.84 0,-56.35 -45.49,-101.84 -101.84,-101.84 -56.35,0 -101.83,45.49 -101.83,101.84 z m -254.83,-52.05 c 0,-13.8 9.74,-27.61 27.39,-27.61 26.7,0 37.79,-33.95 16.06,-49.56 -8.14,-5.88 -11.54,-13.81 -11.54,-21.72 0,-16.98 15.84,-33.27 36.21,-26.48 2.94,0.9 5.88,1.35 8.83,1.35 21.04,0 35.76,-24.66 21.72,-43.67 -3.84,-5.21 -5.43,-10.86 -5.43,-16.07 0,-20.14 23.77,-36.89 43.68,-22.18 5.2,3.85 10.64,5.44 16.06,5.44 17.21,0 32.59,-16.98 26.26,-35.99 -1.13,-3.17 -1.59,-6.34 -1.59,-9.28 0,-24.44 33.49,-38.02 49.79,-15.39 5.66,7.92 13.81,11.32 21.95,11.32 14.03,0 27.84,-10.64 27.61,-27.38 0,-17.65 13.8,-27.61 27.84,-27.61 10.86,0 21.5,5.88 25.79,19.01 4.08,12.67 15.17,19.01 26.03,19.01 10.86,0 21.95,-6.34 26.03,-19.01 4.07,-13.13 14.93,-19.01 25.8,-19.01 13.8,0 27.83,9.96 27.83,27.61 0,26.47 33.95,37.56 49.56,16.06 5.88,-8.14 13.8,-11.54 21.73,-11.54 16.74,0 33.04,15.84 26.48,36.21 -0.91,2.94 -1.59,6.11 -1.59,8.83 0,20.82 24.67,35.75 43.68,21.72 5.2,-3.84 10.86,-5.66 16.29,-5.66 20.14,0 36.66,23.99 22.18,43.91 -3.85,5.2 -5.43,10.86 -5.43,16.07 0,17.2 16.74,32.35 35.98,26.25 3.17,-1.13 6.34,-1.59 9.28,-1.59 24.44,0 38.02,33.49 15.39,49.79 -7.92,5.66 -11.54,14.03 -11.54,21.95 0,14.03 10.63,27.84 27.6,27.61 17.66,0 27.39,13.81 27.39,27.61 0,10.86 -5.88,21.73 -19.01,25.8 -12.68,4.07 -19.01,15.16 -19.01,26.25 0,10.86 6.33,21.95 19.01,26.03 13.13,4.07 19.01,14.93 19.01,25.79 0,13.81 -9.73,27.84 -27.39,27.61 -16.97,0 -27.6,13.81 -27.6,27.62 0,8.14 3.62,16.29 11.54,21.95 8.14,5.88 11.54,13.8 11.54,21.72 0,16.97 -15.84,33.26 -36.21,26.7 -3.17,-0.9 -6.11,-1.58 -9.05,-1.58 -20.82,0 -35.53,24.66 -21.5,43.68 3.85,5.2 5.43,10.86 5.43,16.07 0,20.13 -23.76,36.89 -43.9,22.17 -5.2,-3.62 -10.64,-5.43 -16.07,-5.43 -17.2,0 -32.36,16.97 -26.02,36.21 1.12,3.17 1.58,6.33 1.58,9.05 0,24.44 -33.49,38.25 -49.79,15.39 -5.66,-7.92 -13.8,-11.31 -21.95,-11.31 -14.03,0 -27.83,10.63 -27.61,27.61 0,17.65 -14.03,27.38 -27.83,27.38 -10.87,0 -21.73,-5.89 -25.8,-19.01 -4.08,-12.67 -15.17,-19.01 -26.03,-19.01 -10.86,0 -21.95,6.34 -26.03,19.01 -9.72,29.87 -53.63,22.85 -53.63,-8.37 0,-26.71 -33.94,-37.8 -49.56,-16.3 -5.88,8.15 -13.8,11.54 -21.72,11.54 -16.75,0 -33.04,-15.84 -26.48,-35.98 0.91,-2.94 1.35,-6.11 1.35,-8.82 0,-21.06 -24.66,-35.76 -43.67,-21.96 -5.21,3.84 -10.86,5.66 -16.07,5.66 -20.14,0 -36.66,-23.99 -22.18,-43.9 3.85,-5.21 5.44,-10.86 5.44,-16.07 0,-17.2 -16.75,-32.36 -35.99,-26.03 -3.17,1.13 -6.33,1.59 -9.05,1.59 -24.67,0 -38.25,-33.72 -15.62,-50.01 7.92,-5.66 11.54,-13.81 11.54,-21.95 0,-13.81 -10.63,-27.62 -27.6,-27.62 -31.23,0 -38.25,-43.9 -8.37,-53.4 12.67,-4.08 19,-15.17 19,-26.03 0,-11.09 -6.33,-22.18 -19,-26.25 -13.13,-4.07 -19.02,-14.94 -19.02,-25.8" /><path
         id="path112"
         style="fill:#232996;fill-opacity:1;fill-rule:nonzero;stroke:none"
         d="m 2553.45,3527.84 c -52.54,0 -95.3,-42.76 -95.3,-95.29 0,-52.56 42.76,-95.32 95.3,-95.32 52.55,0 95.31,42.76 95.31,95.32 0,52.53 -42.76,95.29 -95.31,95.29 z m 0,-203.67 c -59.76,0 -108.36,48.63 -108.36,108.38 0,59.75 48.6,108.34 108.36,108.34 59.74,0 108.37,-48.59 108.37,-108.34 0,-59.75 -48.63,-108.38 -108.37,-108.38 z m 0,-203.97 c 15,0 27.65,-9.24 32.24,-23.55 2.84,-9.09 10.16,-14.47 19.6,-14.47 10.58,0 21.3,7.24 21.3,21.08 0,15.07 9.19,27.65 23.39,32.24 14.29,4.75 29.16,-0.23 37.97,-12.35 5.31,-7.29 11.86,-8.82 16.45,-8.82 6.84,0 13.6,3.47 17.68,9.03 2.71,3.75 5.36,10 2.58,18.65 -0.87,2.78 -1.89,6.86 -1.89,10.82 0,12.65 7.25,24.18 18.91,30.08 11.53,5.81 24.67,4.66 35.16,-3.12 11.07,-8.11 25.58,-3.67 31.3,7.73 2.09,4.11 4.62,12.35 -1.99,21.43 -4.34,5.92 -6.66,12.81 -6.66,19.9 0,10.85 5.3,21.23 14.21,27.73 8.72,6.36 19.75,8.09 30.28,4.75 12.58,-4.41 23.66,4.39 26.64,13.6 2.86,8.9 -0.05,17.53 -7.78,23.09 -9.06,6.45 -14.26,16.38 -14.26,27.25 0,9.25 3.72,18.26 10.25,24.69 6.3,6.23 15.15,9.78 23.98,9.44 13.6,0 20.77,10.61 20.77,21.07 0,9.44 -5.38,16.76 -14.41,19.6 -14.37,4.59 -23.6,17.32 -23.6,32.48 0,14.97 9.23,27.63 23.55,32.24 9.08,2.81 14.46,10.11 14.46,19.57 0,6 -2.27,11.68 -6.25,15.61 -3.65,3.58 -8.55,5.46 -14.19,5.46 -21.78,0 -34.56,17.36 -34.56,34.14 0,10.85 5.2,20.79 14.28,27.27 7.27,5.26 8.81,11.82 8.81,16.41 0,6.96 -3.5,13.82 -9.11,17.91 -3.7,2.73 -9.93,5.33 -18.58,2.58 -3.31,-0.97 -7.04,-1.89 -11.04,-1.89 -12.61,0 -24.06,7.19 -29.91,18.8 -5.84,11.53 -4.66,24.73 3.14,35.28 2.73,3.68 4.16,7.89 4.16,12.2 0,7.71 -4.87,15.33 -12.09,19.01 -4.14,2.14 -12.27,4.59 -21.43,-2.12 -16.61,-11.61 -36.97,-7.02 -47.58,7.65 -6.38,8.81 -8.04,19.9 -4.54,30.44 0.81,2.32 1.24,4.77 1.24,7.02 0,10.13 -7.52,17.07 -15,19.46 -8.97,2.89 -17.45,-0.13 -22.96,-7.88 -6.47,-9.06 -16.15,-14.03 -27.24,-14.03 -9.27,0 -18.27,3.72 -24.7,10.25 -6.2,6.3 -9.57,14.8 -9.44,23.96 0,13.6 -10.72,20.77 -21.3,20.77 -9.47,0 -16.79,-5.39 -19.6,-14.42 -4.59,-14.36 -17.24,-23.6 -32.24,-23.6 -14.98,0 -27.63,9.24 -32.25,23.55 -4.08,12.61 -15,15.49 -23.24,14.26 -8.14,-1.27 -17.63,-7.47 -17.63,-20.64 0,-15.2 -9.21,-27.85 -23.45,-32.47 -14.34,-4.65 -29.16,0.23 -37.94,12.34 -5.28,7.33 -11.86,8.86 -16.43,8.86 -6.86,0 -13.67,-3.48 -17.73,-9.09 -2.68,-3.7 -5.3,-9.87 -2.55,-18.36 1.1,-3.58 1.68,-7.4 1.68,-10.85 0,-12.68 -7.19,-24.21 -18.8,-30.13 -11.46,-5.84 -24.67,-4.77 -35.23,2.91 -11.23,8.24 -25.51,3.42 -31.13,-7.7 -2.09,-4.11 -4.62,-12.35 1.99,-21.41 4.36,-5.89 6.69,-12.81 6.69,-19.93 0,-10.89 -5.36,-21.27 -14.32,-27.75 -8.72,-6.28 -19.8,-7.94 -30.23,-4.47 -13.11,4.64 -23.65,-4.67 -26.56,-13.78 -2.88,-8.93 0,-17.57 7.73,-23.14 9.06,-6.48 14.26,-16.42 14.26,-27.27 0,-16.78 -12.75,-34.14 -34.13,-34.14 -13.29,0 -19.42,-9.48 -20.67,-17.62 -1.27,-8.11 1.71,-19.03 14.29,-23.02 14.31,-4.61 23.55,-17.27 23.55,-32.24 0,-15.16 -9.24,-27.89 -23.55,-32.48 -9.08,-2.81 -14.47,-10.13 -14.47,-19.6 0,-10.46 7.17,-21.07 20.85,-21.07 15.2,0 27.86,-9.21 32.45,-23.44 4.59,-14.27 -0.36,-29.14 -12.58,-37.94 -7.3,-5.29 -8.83,-11.84 -8.83,-16.43 0,-6.99 3.5,-13.83 9.12,-17.89 3.67,-2.68 10,-5.36 18.51,-2.39 16.23,5.1 33.45,-2.22 41.03,-17.17 5.81,-11.51 4.62,-24.68 -3.16,-35.21 -2.73,-3.7 -4.16,-7.91 -4.16,-12.2 0,-7.73 4.9,-15.41 12.17,-19.08 4.11,-2.09 12.17,-4.47 21.1,2.14 15.15,11.18 37.04,7.25 47.88,-7.78 6.33,-8.75 7.96,-19.72 4.52,-30.08 -0.84,-2.37 -1.25,-4.77 -1.25,-7.22 0,-10.05 7.48,-16.94 14.9,-19.34 8.85,-2.73 17.47,0.05 23.04,7.76 6.48,9.06 16.17,14.06 27.27,14.06 9.29,0 18.32,-3.75 24.75,-10.29 6.17,-6.25 9.51,-14.69 9.39,-23.75 0,-13.73 10.71,-20.97 21.3,-20.97 4.46,0 15.3,1.4 19.59,14.52 4.6,14.26 17.25,23.5 32.23,23.5 z m 51.84,-51.08 c -15.23,0 -27.53,9.03 -32.05,23.6 -3.42,10.61 -12.8,14.41 -19.79,14.41 -6.99,0 -16.36,-3.8 -19.8,-14.47 -4.75,-14.54 -17.02,-23.54 -32.02,-23.54 -16.66,0 -34.36,11.97 -34.36,34.14 0.09,7.16 -3.02,11.83 -5.62,14.48 -4,4.06 -9.64,6.38 -15.46,6.38 -4.8,0 -11.56,-1.47 -16.66,-8.6 -8.88,-12.4 -23.32,-17.29 -37.66,-12.57 -14.33,4.62 -23.95,17.37 -23.95,31.76 0,3.96 0.66,7.81 1.96,11.48 2.09,6.28 1.12,12.78 -2.75,18.17 -6.74,9.33 -20.06,11.96 -29.55,4.92 -10.64,-7.85 -23.29,-9.11 -34.72,-3.29 -11.76,5.92 -19.36,17.99 -19.36,30.74 0,7.1 2.32,13.98 6.71,19.96 4.87,6.6 5.61,14.46 2.01,21.58 -4.72,9.38 -15.61,13.52 -25.36,10.61 -10.59,-3.6 -21.38,-2.14 -30.18,4.23 -8.96,6.46 -14.52,17.38 -14.52,28.48 0,10.79 5.08,20.38 14.26,27.04 9.16,6.56 10.01,16.35 7.76,23.32 -2.24,6.96 -8.6,14.39 -19.77,14.39 -22.25,0 -34.14,17.58 -34.14,34.13 0,15.26 9.03,27.53 23.6,32.05 10.62,3.42 14.41,12.57 14.41,20.03 0,6.99 -3.79,16.35 -14.46,19.79 -19.11,6.07 -25.43,23.2 -23.22,37.46 2.6,16.91 16.33,28.7 33.35,28.7 13.42,0 21.3,10.71 21.3,21.07 0,6.69 -3.14,12.61 -8.8,16.66 -12.4,8.91 -17.19,23.37 -12.58,37.76 5.85,18.11 25.54,28.47 43.22,22.12 6.45,-2.11 13.06,-1.18 18.37,2.71 5.48,3.95 8.91,10.53 8.91,17.16 0,3.02 -0.72,7.56 -4.16,12.2 -7.74,10.61 -8.88,23.7 -3.12,35.08 9.24,18.09 33.2,25.18 50.49,12.29 6.61,-4.76 14.44,-5.43 21.61,-1.81 7.2,3.68 11.66,10.77 11.66,18.5 0,2.17 -0.38,4.7 -1.07,6.92 -3.45,10.58 -1.89,21.27 4.44,29.97 6.48,8.93 17.32,14.47 28.29,14.47 10.79,0 20.38,-5.08 27.02,-14.26 6.56,-9.08 16.45,-9.82 23.29,-7.58 6.99,2.27 14.45,8.65 14.45,19.83 0,20.25 14.38,31.5 28.64,33.77 14.34,2.2 31.49,-4.03 37.71,-23.16 3.47,-10.69 12.84,-14.49 19.83,-14.49 6.99,0 16.37,3.77 19.79,14.46 4.52,14.51 16.79,23.55 32.05,23.55 16.66,0 34.36,-11.89 34.36,-33.91 -0.1,-7.32 3.04,-12.04 5.69,-14.72 3.98,-4.03 9.6,-6.35 15.39,-6.35 4.79,0 11.55,1.48 16.63,8.57 8.88,12.42 23.24,17.35 37.55,12.71 14.42,-4.59 24.09,-17.43 24.09,-31.89 0,-3.75 -0.69,-7.63 -1.97,-11.25 -2.14,-6.46 -1.17,-13.12 2.79,-18.55 6.45,-8.96 18.8,-12.02 29.41,-4.67 10.67,7.86 23.4,8.98 34.93,3.14 11.68,-5.95 19.24,-17.99 19.24,-30.67 0,-7.11 -2.33,-14.03 -6.71,-19.95 -4.88,-6.61 -5.62,-14.49 -1.99,-21.64 3.59,-7.16 10.61,-11.63 18.24,-11.63 1.88,0 4.03,0.39 7.24,1.32 10.59,3.4 21.36,1.87 30.08,-4.51 8.93,-6.51 14.47,-17.4 14.47,-28.47 0,-10.79 -5.06,-20.38 -14.24,-27.02 -5.71,-4.08 -8.85,-9.97 -8.85,-16.66 0,-10.36 7.88,-21.07 21.1,-21.07 9.16,0.71 17.5,-3.07 23.75,-9.24 6.45,-6.38 10.15,-15.43 10.15,-24.9 0,-15.26 -9.05,-27.52 -23.59,-32.04 -10.62,-3.42 -14.42,-12.78 -14.42,-19.77 0,-7.46 3.8,-16.61 14.47,-20.03 14.51,-4.52 23.54,-16.82 23.54,-32.05 0,-16.55 -11.89,-34.13 -33.9,-34.13 -6.86,-0.46 -12.07,-3.06 -14.75,-5.69 -4.03,-3.98 -6.35,-9.6 -6.35,-15.38 0,-6.59 3.21,-12.63 8.8,-16.61 12.43,-8.96 17.22,-23.4 12.6,-37.73 -4.61,-14.32 -17.37,-23.94 -31.76,-23.94 -3.95,0 -7.8,0.66 -11.48,1.96 -6.3,2.05 -12.96,1 -18.37,-2.9 -5.56,-4.08 -8.88,-10.49 -8.88,-17.2 0,-2.98 0.71,-7.53 4.14,-12.16 7.73,-10.64 8.87,-23.76 3.11,-35.11 -9.24,-18.14 -33.37,-25.03 -50.7,-12.32 -6.61,4.87 -14.41,5.5 -21.53,1.98 -7.12,-3.59 -11.74,-10.81 -11.74,-18.41 0,-1.79 0.47,-4.24 1.28,-6.89 3.47,-10.77 1.89,-21.53 -4.46,-30.26 -6.49,-8.9 -17.3,-14.42 -28.25,-14.42 -10.79,0 -20.38,5.06 -27.02,14.24 -6.58,9.06 -16.4,9.95 -23.36,7.58 -6.94,-2.25 -14.37,-8.58 -14.37,-19.59 0,-22.4 -17.7,-34.37 -34.36,-34.37" /><path
         id="path114"
         style="fill:#ffca22;fill-opacity:1;fill-rule:nonzero;stroke:none"
         d="m 2997.85,3161.14 c 0,55.41 44.97,100.32 100.38,100.32 55.41,0 100.31,-44.91 100.31,-100.32 0,-55.4 -44.9,-100.37 -100.31,-100.37 -55.41,0 -100.38,44.97 -100.38,100.37 z m -134.98,-51.31 34.61,0.13 c 13.67,0 19.34,-17.43 8.25,-25.42 l -28.07,-20.27 c -13.01,-9.38 -2.64,-29.72 12.55,-24.7 l 32.95,10.83 c 12.94,4.29 23.71,-10.57 15.66,-21.6 l -20.48,-27.93 c -9.44,-12.94 6.67,-29.05 19.61,-19.61 l 27.94,20.47 c 11.03,8.06 25.89,-2.78 21.66,-15.72 l -10.83,-32.88 c -5.02,-15.19 15.32,-25.56 24.7,-12.55 l 20.21,28.06 c 7.99,11.1 25.48,5.42 25.42,-8.25 l -0.13,-34.61 c -0.07,-16.04 22.45,-19.61 27.41,-4.35 l 10.56,32.95 c 4.16,13.01 22.52,13.01 26.68,0 l 10.57,-32.95 c 4.95,-15.26 27.47,-11.69 27.4,4.35 l -0.13,34.61 c -0.07,13.67 17.44,19.35 25.43,8.25 l 20.2,-28.06 c 9.38,-13.01 29.72,-2.64 24.7,12.55 l -10.83,32.88 c -4.22,12.94 10.63,23.78 21.66,15.72 l 27.93,-20.47 c 12.95,-9.44 29.06,6.67 19.62,19.61 l -20.47,27.93 c -8.06,11.03 2.7,25.89 15.64,21.6 l 32.96,-10.83 c 15.19,-5.02 25.55,15.32 12.54,24.7 l -28.06,20.27 c -11.09,7.99 -5.41,25.42 8.26,25.42 l 34.6,-0.13 c 16.05,-0.06 19.61,22.46 4.36,27.34 l -33.02,10.57 c -12.95,4.22 -12.95,22.58 0,26.74 l 33.02,10.57 c 15.25,4.89 11.69,27.47 -4.36,27.41 l -34.6,-0.14 c -13.67,-0.06 -19.35,17.44 -8.26,25.36 l 28.06,20.28 c 13.01,9.37 2.65,29.71 -12.54,24.7 l -32.96,-10.84 c -12.94,-4.22 -23.7,10.64 -15.64,21.6 l 20.47,27.93 c 9.44,12.94 -6.67,29.13 -19.62,19.62 l -27.93,-20.47 c -11.03,-8.06 -25.88,2.77 -21.66,15.71 l 10.83,32.89 c 5.02,15.25 -15.32,25.62 -24.7,12.61 l -20.2,-28.13 c -7.99,-11.03 -25.5,-5.35 -25.43,8.26 l 0.13,34.66 c 0.07,16.05 -22.45,19.62 -27.4,4.36 l -10.57,-33.02 c -4.16,-13.01 -22.52,-13.01 -26.68,0 l -10.56,33.02 c -4.96,15.26 -27.48,11.69 -27.41,-4.36 l 0.13,-34.66 c 0.06,-13.61 -17.43,-19.29 -25.42,-8.26 l -20.21,28.13 c -9.38,13.01 -29.72,2.64 -24.7,-12.61 l 10.83,-32.89 c 4.23,-12.94 -10.63,-23.77 -21.66,-15.71 l -27.94,20.47 c -12.94,9.51 -29.05,-6.68 -19.61,-19.62 l 20.48,-27.93 c 8.05,-10.96 -2.72,-25.82 -15.66,-21.6 l -32.95,10.84 c -15.19,5.01 -25.56,-15.33 -12.55,-24.7 l 28.07,-20.28 c 11.09,-7.92 5.42,-25.42 -8.25,-25.36 l -34.61,0.14 c -16.05,0.06 -19.61,-22.52 -4.36,-27.41 l 33.02,-10.57 c 12.94,-4.16 12.94,-22.52 0,-26.74 l -33.02,-10.57 c -15.25,-4.88 -11.69,-27.4 4.36,-27.34" /><path
         id="path116"
         style="fill:#232996;fill-opacity:1;fill-rule:nonzero;stroke:none"
         d="m 2553.4,2687.18 h 95.21 V 2989 h -95.21 v -301.82" /><path
         id="path118"
         style="fill:#232996;fill-opacity:1;fill-rule:nonzero;stroke:none"
         d="m 2495.17,2695.28 c 36.12,-41.74 72.24,-83.47 108.37,-125.2 34.43,41.73 68.87,83.46 103.31,125.2 -70.57,0 -141.12,0 -211.68,0" /><path
         id="path120"
         style="fill:#232996;fill-opacity:1;fill-rule:nonzero;stroke:none"
         d="m 3024.11,898.551 c 43.72,-13.711 89.64,0.148 112.42,31.898 29.78,41.512 17.53,110.121 -36.46,144.331 -44.56,37.98 -89.13,75.96 -133.69,113.94 -24.31,-68.37 -48.62,-136.73 -72.92,-205.099 6.43,3.469 36.43,18.759 69.88,7.598 35.75,-11.93 60.82,-49.207 60.77,-92.668" /><path
         id="path122"
         style="fill:#232996;fill-opacity:1;fill-rule:nonzero;stroke:none"
         d="m 2328.35,750.031 c 23.84,-39.121 67.52,-58.961 105.58,-50.09 49.75,11.59 85.75,71.27 67.69,132.579 -8.49,57.929 -16.98,115.871 -25.47,173.8 -63.34,-35.398 -126.67,-70.8 -190,-106.199 7.11,-1.633 39.76,-9.902 57.56,-40.34 19.03,-32.531 13.32,-77.101 -15.36,-109.75" /><path
         id="path124"
         style="fill:#f4f4f7;fill-opacity:1;fill-rule:nonzero;stroke:none"
         d="m 3212.68,1021.98 c 9.14,3.26 13.96,13.41 10.7,22.56 l -27.61,77.4 c -3.26,9.15 -13.42,13.96 -22.57,10.7 -9.14,-3.26 -13.95,-13.42 -10.69,-22.56 l 27.61,-77.4 c 3.26,-9.15 13.42,-13.96 22.56,-10.7" /><path
         id="path126"
         style="fill:#f4f4f7;fill-opacity:1;fill-rule:nonzero;stroke:none"
         d="m 3168.62,998.43 c 9.15,3.27 13.96,13.42 10.7,22.56 l -27.61,77.4 c -3.26,9.15 -13.41,13.96 -22.56,10.7 -9.15,-3.26 -13.96,-13.42 -10.7,-22.56 l 27.61,-77.4 c 3.27,-9.15 13.42,-13.958 22.56,-10.7" /><path
         id="path128"
         style="fill:#f4f4f7;fill-opacity:1;fill-rule:nonzero;stroke:none"
         d="m 2529.06,723.238 c 8.72,-4.258 19.34,-0.597 23.6,8.133 l 36.05,73.848 c 4.26,8.722 0.6,19.351 -8.13,23.613 -8.72,4.258 -19.34,0.598 -23.61,-8.133 l -36.04,-73.847 c -4.26,-8.723 -0.6,-19.34 8.13,-23.614" /><path
         id="path130"
         style="fill:#f4f4f7;fill-opacity:1;fill-rule:nonzero;stroke:none"
         d="m 2481.41,738.281 c 8.74,-4.25 19.36,-0.601 23.62,8.129 l 36.04,73.852 c 4.26,8.726 0.6,19.347 -8.12,23.609 -8.73,4.25 -19.36,0.598 -23.61,-8.121 l -36.05,-73.852 c -4.25,-8.726 -0.6,-19.359 8.12,-23.617" /><path
         id="path132"
         style="fill:#232996;fill-opacity:1;fill-rule:nonzero;stroke:none"
         d="m 834.984,585.461 h -63.879 c -3.601,0 -6.531,2.93 -6.531,6.527 0,3.594 2.93,6.532 6.531,6.532 h 63.879 c 3.602,0 6.532,-2.938 6.532,-6.532 0,-3.597 -2.93,-6.527 -6.532,-6.527" /><path
         id="path134"
         style="fill:#232996;fill-opacity:1;fill-rule:nonzero;stroke:none"
         d="m 933.723,585.461 h -49.371 c -3.594,0 -6.532,2.93 -6.532,6.527 0,3.594 2.938,6.532 6.532,6.532 h 49.371 c 3.593,0 6.531,-2.938 6.531,-6.532 0,-3.597 -2.938,-6.527 -6.531,-6.527" /><path
         id="path136"
         style="fill:#232996;fill-opacity:1;fill-rule:nonzero;stroke:none"
         d="M 3426.74,585.461 H 976.328 c -3.601,0 -6.531,2.93 -6.531,6.527 0,3.594 2.93,6.532 6.531,6.532 H 3426.74 c 3.6,0 6.53,-2.938 6.53,-6.532 0,-3.597 -2.93,-6.527 -6.53,-6.527" /><path
         id="path138"
         style="fill:#232996;fill-opacity:1;fill-rule:nonzero;stroke:none"
         d="m 3566.12,585.461 h -94.37 c -3.6,0 -6.53,2.93 -6.53,6.527 0,3.594 2.93,6.532 6.53,6.532 h 94.37 c 3.6,0 6.53,-2.938 6.53,-6.532 0,-3.597 -2.93,-6.527 -6.53,-6.527" /><path
         id="path140"
         style="fill:#232996;fill-opacity:1;fill-rule:nonzero;stroke:none"
         d="m 3627.09,585.461 h -39.18 c -3.6,0 -6.53,2.93 -6.53,6.527 0,3.594 2.93,6.532 6.53,6.532 h 39.18 c 3.6,0 6.54,-2.938 6.54,-6.532 0,-3.597 -2.94,-6.527 -6.54,-6.527" /><path
         id="path142"
         style="fill:#232996;fill-opacity:1;fill-rule:nonzero;stroke:none"
         d="m 3738.89,585.461 h -66.79 c -3.6,0 -6.53,2.93 -6.53,6.527 0,3.594 2.93,6.532 6.53,6.532 h 66.79 c 3.6,0 6.54,-2.938 6.54,-6.532 0,-3.597 -2.94,-6.527 -6.54,-6.527" /><path
         id="path144"
         style="fill:#232996;fill-opacity:1;fill-rule:nonzero;stroke:none"
         d="m 3086.57,3750.34 c 27.9,0 55.79,0 83.68,0 -11.4,60.27 -22.79,120.55 -34.18,180.83 -16.51,-60.28 -33,-120.56 -49.5,-180.83" /><path
         id="path146"
         style="fill:#232996;fill-opacity:1;fill-rule:nonzero;stroke:none"
         d="m 3086.57,3750.34 c 27.9,0 55.79,0 83.68,0 -11.4,-60.28 -22.79,-120.56 -34.18,-180.84 -16.51,60.28 -33,120.56 -49.5,180.84" /><path
         id="path148"
         style="fill:#232996;fill-opacity:1;fill-rule:nonzero;stroke:none"
         d="m 3135.41,3792.17 c 0,-27.9 0,-55.79 0,-83.68 45.21,11.4 90.42,22.8 135.62,34.19 -45.2,16.5 -90.41,32.99 -135.62,49.49" /><path
         id="path150"
         style="fill:#232996;fill-opacity:1;fill-rule:nonzero;stroke:none"
         d="m 3135.41,3792.17 c 0,-27.9 0,-55.79 0,-83.68 -45.21,11.4 -90.42,22.8 -135.62,34.19 45.2,16.5 90.41,32.99 135.62,49.49" /><path
         id="path152"
         style="fill:#232996;fill-opacity:1;fill-rule:nonzero;stroke:none"
         d="m 1799.91,3479.09 c 27.89,0 55.78,0 83.68,0 -11.4,60.27 -22.79,120.55 -34.19,180.83 -16.49,-60.28 -32.99,-120.56 -49.49,-180.83" /><path
         id="path154"
         style="fill:#232996;fill-opacity:1;fill-rule:nonzero;stroke:none"
         d="m 1799.91,3479.09 c 27.89,0 55.78,0 83.68,0 -11.4,-60.28 -22.79,-120.56 -34.19,-180.83 -16.49,60.27 -32.99,120.55 -49.49,180.83" /><path
         id="path156"
         style="fill:#232996;fill-opacity:1;fill-rule:nonzero;stroke:none"
         d="m 1848.75,3520.92 c 0,-27.89 0,-55.78 0,-83.67 45.21,11.39 90.41,22.79 135.63,34.18 -45.22,16.5 -90.42,33 -135.63,49.49" /><path
         id="path158"
         style="fill:#232996;fill-opacity:1;fill-rule:nonzero;stroke:none"
         d="m 1848.75,3520.92 c 0,-27.89 0,-55.78 0,-83.67 -45.21,11.39 -90.41,22.79 -135.62,34.18 45.21,16.5 90.41,33 135.62,49.49" /><path
         id="path160"
         style="fill:#232996;fill-opacity:1;fill-rule:nonzero;stroke:none"
         d="m 1511.12,3161.11 c 14.67,0 29.33,0 44,0 -5.99,31.7 -11.98,63.39 -17.97,95.09 -8.68,-31.7 -17.36,-63.39 -26.03,-95.09" /><path
         id="path162"
         style="fill:#232996;fill-opacity:1;fill-rule:nonzero;stroke:none"
         d="m 1511.12,3161.11 c 14.67,0 29.33,0 44,0 -5.99,-31.69 -11.98,-63.39 -17.97,-95.08 -8.68,31.69 -17.36,63.39 -26.03,95.08" /><path
         id="path164"
         style="fill:#232996;fill-opacity:1;fill-rule:nonzero;stroke:none"
         d="m 1536.8,3183.11 c 0,-14.67 0,-29.33 0,-44 23.77,5.99 47.54,11.99 71.31,17.98 -23.77,8.67 -47.54,17.35 -71.31,26.02" /><path
         id="path166"
         style="fill:#232996;fill-opacity:1;fill-rule:nonzero;stroke:none"
         d="m 1536.8,3183.11 c 0,-14.67 0,-29.33 0,-44 -23.77,5.99 -47.54,11.99 -71.31,17.98 23.77,8.67 47.54,17.35 71.31,26.02" /><path
         id="path168"
         style="fill:#232996;fill-opacity:1;fill-rule:nonzero;stroke:none"
         d="m 3505.99,3554.87 c 13.95,0 27.89,0 41.84,0 -5.7,30.14 -11.4,60.27 -17.09,90.41 -8.25,-30.14 -16.51,-60.27 -24.75,-90.41" /><path
         id="path170"
         style="fill:#232996;fill-opacity:1;fill-rule:nonzero;stroke:none"
         d="m 3505.99,3554.87 c 13.95,0 27.89,0 41.84,0 -5.7,-30.14 -11.4,-60.28 -17.09,-90.42 -8.25,30.14 -16.51,60.28 -24.75,90.42" /><path
         id="path172"
         style="fill:#232996;fill-opacity:1;fill-rule:nonzero;stroke:none"
         d="m 3530.41,3575.79 c 0,-13.95 0,-27.9 0,-41.84 22.6,5.7 45.2,11.39 67.81,17.09 -22.61,8.25 -45.21,16.5 -67.81,24.75" /><path
         id="path174"
         style="fill:#232996;fill-opacity:1;fill-rule:nonzero;stroke:none"
         d="m 3530.41,3575.79 c 0,-13.95 0,-27.9 0,-41.84 -22.61,5.7 -45.21,11.39 -67.81,17.09 22.6,8.25 45.2,16.5 67.81,24.75" /></g></g></svg>