<?xml version="1.0" encoding="UTF-8" standalone="no"?>
<!-- Created with Inkscape (http://www.inkscape.org/) -->

<svg
   version="1.1"
   id="svg2"
   xml:space="preserve"
   width="541.99359"
   height="548.41815"
   viewBox="0 0 541.99359 548.41815"
   sodipodi:docname="4d32eef97a939000c945f9ab15ea252c.ai"
   xmlns:inkscape="http://www.inkscape.org/namespaces/inkscape"
   xmlns:sodipodi="http://sodipodi.sourceforge.net/DTD/sodipodi-0.dtd"
   xmlns="http://www.w3.org/2000/svg"
   xmlns:svg="http://www.w3.org/2000/svg"><defs
     id="defs6"><clipPath
       clipPathUnits="userSpaceOnUse"
       id="clipPath16"><path
         d="M 0,500 H 500 V 0 H 0 Z"
         id="path14" /></clipPath><clipPath
       clipPathUnits="userSpaceOnUse"
       id="clipPath28"><path
         d="M 0,500 H 500 V 0 H 0 Z"
         id="path26" /></clipPath><clipPath
       clipPathUnits="userSpaceOnUse"
       id="clipPath80"><path
         d="M 81.8005,188.845 H 175.943 V 47.4758 H 81.8005 Z"
         id="path78" /></clipPath><clipPath
       clipPathUnits="userSpaceOnUse"
       id="clipPath104"><path
         d="m 378.589,252.771 h 19.288 v -33.337 h -19.288 z"
         id="path102" /></clipPath><clipPath
       clipPathUnits="userSpaceOnUse"
       id="clipPath120"><path
         d="M 369.059,142.857 H 432.37 V 51.2949 h -63.311 z"
         id="path118" /></clipPath><clipPath
       clipPathUnits="userSpaceOnUse"
       id="clipPath144"><path
         d="m 242.822,308.055 h 35.191 v -46.088 h -35.191 z"
         id="path142" /></clipPath><clipPath
       clipPathUnits="userSpaceOnUse"
       id="clipPath216"><path
         d="M 207.337,176.09 H 391.428 V 79.3671 H 207.337 Z"
         id="path214" /></clipPath><clipPath
       clipPathUnits="userSpaceOnUse"
       id="clipPath308"><path
         d="m 220.857,370.061 h 75.64 v -25.087 h -75.64 z"
         id="path306" /></clipPath></defs><sodipodi:namedview
     id="namedview4"
     pagecolor="#ffffff"
     bordercolor="#666666"
     borderopacity="1.0"
     inkscape:pageshadow="2"
     inkscape:pageopacity="0.0"
     inkscape:pagecheckerboard="0" /><g
     id="g8"
     inkscape:groupmode="layer"
     inkscape:label="4d32eef97a939000c945f9ab15ea252c"
     transform="matrix(1.3333333,0,0,-1.3333333,-62.473332,611.71958)"><g
       id="g10"><g
         id="g12"
         clip-path="url(#clipPath16)"><g
           id="g18"
           transform="translate(418.6549,159.7399)"><path
             d="m 0,0 h -337.31 c -10.076,0 -18.244,8.169 -18.244,18.244 v 249.63 c 0,10.076 8.168,18.244 18.244,18.244 H 0 c 10.076,0 18.244,-8.168 18.244,-18.244 V 18.244 C 18.244,8.169 10.076,0 0,0"
             style="fill:#edf2f9;fill-opacity:1;fill-rule:nonzero;stroke:none"
             id="path20" /></g></g></g><g
       id="g22"><g
         id="g24"
         clip-path="url(#clipPath28)"><g
           id="g30"
           transform="translate(184.3986,320.5373)"><path
             d="m 0,0 h -125.029 c -3.494,0 -6.327,2.833 -6.327,6.327 v 85.329 c 0,3.494 2.833,6.326 6.327,6.326 L 0,97.982 c 3.494,0 6.327,-2.832 6.327,-6.326 V 6.327 C 6.327,2.833 3.494,0 0,0"
             style="fill:#82adff;fill-opacity:1;fill-rule:nonzero;stroke:none"
             id="path32" /></g><g
           id="g34"
           transform="translate(168.7335,333.4186)"><path
             d="m 0,0 h -93.699 c -3.494,0 -6.327,2.833 -6.327,6.327 v 59.566 c 0,3.494 2.833,6.327 6.327,6.327 H 0 c 3.494,0 6.327,-2.833 6.327,-6.327 V 6.327 C 6.327,2.833 3.494,0 0,0"
             style="fill:#231f9c;fill-opacity:1;fill-rule:nonzero;stroke:none"
             id="path36" /></g><g
           id="g38"
           transform="translate(152.1515,385.5773)"><path
             d="m 0,0 -28.534,-34.875 17.581,-17.284 h 27.535 c 3.494,0 6.327,2.833 6.327,6.327 v 13.59 z"
             style="fill:#ff78c0;fill-opacity:1;fill-rule:nonzero;stroke:none"
             id="path40" /></g><g
           id="g42"
           transform="translate(110.4806,363.6159)"><path
             d="M 0,0 -28.635,-30.197 H 30.718 L 13.137,-12.914 Z"
             style="fill:#ffffff;fill-opacity:1;fill-rule:nonzero;stroke:none"
             id="path44" /></g><g
           id="g46"
           transform="translate(104.8493,381.0724)"><path
             d="m 0,0 c 0,-6.22 -5.042,-11.262 -11.262,-11.262 -6.22,0 -11.262,5.042 -11.262,11.262 0,6.22 5.042,11.263 11.262,11.263 C -5.042,11.263 0,6.22 0,0"
             style="fill:#82adff;fill-opacity:1;fill-rule:nonzero;stroke:none"
             id="path48" /></g><g
           id="g50"
           transform="translate(141.2204,288.7209)"><path
             d="m 0,0 h -72.742 c -4.482,0 -8.115,-3.633 -8.115,-8.116 v -28.818 c 0,-4.482 3.633,-8.115 8.115,-8.115 h 1.458 v -19.709 l 13.46,19.709 H 0 c 4.482,0 8.116,3.633 8.116,8.115 V -8.116 C 8.116,-3.633 4.482,0 0,0"
             style="fill:#82adff;fill-opacity:1;fill-rule:nonzero;stroke:none"
             id="path52" /></g><g
           id="g54"
           transform="translate(86.8297,265.07)"><path
             d="m 0,0 c 0,-2.177 -1.765,-3.942 -3.942,-3.942 -2.177,0 -3.942,1.765 -3.942,3.942 0,2.177 1.765,3.942 3.942,3.942 C -1.765,3.942 0,2.177 0,0"
             style="fill:#231f9c;fill-opacity:1;fill-rule:nonzero;stroke:none"
             id="path56" /></g><g
           id="g58"
           transform="translate(109.3546,265.07)"><path
             d="m 0,0 c 0,-2.177 -1.765,-3.942 -3.942,-3.942 -2.177,0 -3.942,1.765 -3.942,3.942 0,2.177 1.765,3.942 3.942,3.942 C -1.765,3.942 0,2.177 0,0"
             style="fill:#231f9c;fill-opacity:1;fill-rule:nonzero;stroke:none"
             id="path60" /></g><g
           id="g62"
           transform="translate(131.8795,265.07)"><path
             d="m 0,0 c 0,-2.177 -1.765,-3.942 -3.942,-3.942 -2.177,0 -3.942,1.765 -3.942,3.942 0,2.177 1.765,3.942 3.942,3.942 C -1.765,3.942 0,2.177 0,0"
             style="fill:#231f9c;fill-opacity:1;fill-rule:nonzero;stroke:none"
             id="path64" /></g><g
           id="g66"
           transform="translate(329.7223,225.8395)"><path
             d="m 0,0 c 0,0 23.65,-8.635 32.66,-34.163 9.01,-25.528 15.768,-63.444 18.021,-94.229 2.252,-30.784 -0.376,-48.427 -0.376,-48.427 H -0.376 c 0,0 1.502,177.194 0.376,176.819"
             style="fill:#fca4a2;fill-opacity:1;fill-rule:nonzero;stroke:none"
             id="path68" /></g><g
           id="g70"
           transform="translate(153.278,231.0954)"><path
             d="m 0,0 c 0,0 -39.794,-15.393 -55.186,-46.927 -15.392,-31.535 -23.275,-72.455 -8.259,-122.01 l 5.256,-14.64 c 0,0 52.933,1.877 54.81,0 1.877,-1.877 24.026,59.315 25.528,58.939 1.502,-0.375 -0.751,81.465 -0.751,81.465 L 9.385,-10.512 Z"
             style="fill:#fca4a2;fill-opacity:1;fill-rule:nonzero;stroke:none"
             id="path72" /></g><g
           id="g74"><g
             id="g76" /><g
             id="g88"><g
               clip-path="url(#clipPath80)"
               id="g86"><g
                 transform="translate(175.4274,106.4577)"
                 id="g84"><path
                   d="M 0,0 C 0.942,-0.235 0.406,31.9 -0.124,55.876 L -3.242,82.387 C -12.514,67.885 -21.846,53.304 -33.426,40.568 -45.005,27.832 -59.058,16.912 -75.365,11.402 c -5.85,-1.976 -12.571,-3.093 -18.244,-1.204 -0.251,-16.797 2.099,-34.973 8.015,-54.497 l 5.256,-14.64 c 0,0 52.933,1.876 54.81,0 C -23.651,-60.816 -1.502,0.376 0,0"
                   style="fill:#e9c9c9;fill-opacity:1;fill-rule:nonzero;stroke:none"
                   id="path82" /></g></g></g></g><g
           id="g90"
           transform="translate(147.6466,229.9684)"><path
             d="m 0,0 c 0,0 39.418,16.519 73.206,16.519 33.787,0 72.83,0 112.999,-19.897 0,0 12.388,-40.545 12.388,-80.339 0,-39.794 -11.637,-96.105 -11.637,-96.105 H 1.501 c 0,0 16.894,31.534 21.024,63.82 4.129,32.285 -0.376,70.577 -5.256,90.475 C 12.389,-5.631 0,0 0,0"
             style="fill:#ff78c0;fill-opacity:1;fill-rule:nonzero;stroke:none"
             id="path92" /></g><g
           id="g94"
           transform="translate(426.5787,151.8825)"><path
             d="m 0,0 c -8.635,33.412 -34.914,77.336 -34.914,77.336 2.637,0.351 4.689,0.875 6.212,1.979 l -3.584,-0.853 c 0,0 -5.256,-0.376 -7.884,1.877 -2.628,2.252 2.253,4.505 2.253,4.505 0,0 -3.379,-1.126 -4.505,1.126 -1.126,2.253 3.003,3.379 3.003,3.379 l -3.379,1.502 c -3.754,2.628 1.127,5.255 1.127,5.255 -4.13,2.252 -0.376,4.505 -0.376,4.505 -0.751,8.259 -7.133,6.007 -7.133,6.007 0,0 2.628,-5.256 0,-13.139 -3.754,-1.877 -9.009,-9.761 -9.76,-21.024 -0.751,-11.263 3.378,-174.942 3.378,-174.942 28.157,-1.877 38.668,0.751 52.183,18.019 C 9.059,-68.574 8.634,-33.411 0,0"
             style="fill:#fc9d98;fill-opacity:1;fill-rule:nonzero;stroke:none"
             id="path96" /></g><g
           id="g98"><g
             id="g100" /><g
             id="g112"><g
               clip-path="url(#clipPath104)"
               id="g110"><g
                 transform="translate(391.6647,229.2184)"
                 id="g108"><path
                   d="M 0,0 C 2.637,0.351 4.689,0.875 6.212,1.979 L 2.628,1.126 c 0,0 -5.256,-0.376 -7.884,1.877 -2.628,2.252 2.253,4.505 2.253,4.505 0,0 -3.379,-1.126 -4.505,1.126 -1.126,2.253 3.003,3.379 3.003,3.379 l -3.379,1.502 c -3.754,2.628 1.127,5.256 1.127,5.256 -4.13,2.251 -0.376,4.504 -0.376,4.504 -0.009,0.097 -0.021,0.184 -0.032,0.278 -1.78,-1.634 -2.905,-3.882 -3.804,-6.138 -1.142,-2.868 -2.023,-5.884 -2.101,-8.97 -0.133,-5.224 2.174,-10.46 6.12,-13.886 C -3.534,-8.408 1.052,-9.962 5.566,-9.769 2.215,-3.703 0,0 0,0"
                   style="fill:#e9c9c9;fill-opacity:1;fill-rule:nonzero;stroke:none"
                   id="path106" /></g></g></g></g><g
           id="g114"><g
             id="g116" /><g
             id="g128"><g
               clip-path="url(#clipPath120)"
               id="g126"><g
                 transform="translate(369.0592,132.0583)"
                 id="g124"><path
                   d="m 0,0 c 0.782,-35.216 1.625,-69.324 1.88,-79.562 l 31.856,-1.202 c 7.74,2.6 13.704,7.56 20.405,16.12 5.17,6.607 8.111,16.549 9.17,28.304 -3.796,0.106 -7.592,0.571 -11.322,1.292 -11.443,2.212 -22.653,6.835 -31.19,14.77 -8.537,7.934 -14.122,19.447 -13.356,31.077 z"
                   style="fill:#e9c9c9;fill-opacity:1;fill-rule:nonzero;stroke:none"
                   id="path122" /></g></g></g></g><g
           id="g130"
           transform="translate(268.5299,366.6193)"><path
             d="m 0,0 c 0,0 22.149,6.006 32.285,-9.761 10.119,-15.74 2.653,-29.61 2.628,-29.657 0.409,0.757 7.451,-6.312 7.802,-6.81 4.007,-5.682 4.611,-13.482 3.161,-20.124 -1.577,-7.229 -6.918,-16.057 -7.209,-15.864 6.382,-4.88 18.396,-17.644 7.884,-30.408 -138.152,6.006 -150.541,7.884 -150.541,7.884 0,0 -4.129,26.279 27.03,34.537 0.751,17.645 13.14,28.908 25.528,31.911 0,0 4.13,55.936 51.432,38.292"
             style="fill:#231f9c;fill-opacity:1;fill-rule:nonzero;stroke:none"
             id="path132" /></g><g
           id="g134"
           transform="translate(277.5397,294.1642)"><path
             d="m 0,0 0.751,-50.305 c 0,0 6.757,-7.884 4.505,-21.399 -3.102,-18.607 -27.03,-21.774 -46.176,-13.139 -19.146,8.635 -25.528,34.913 -25.528,34.913 l 41.295,63.821 z"
             style="fill:#fca4a2;fill-opacity:1;fill-rule:nonzero;stroke:none"
             id="path136" /></g><g
           id="g138"><g
             id="g140" /><g
             id="g152"><g
               clip-path="url(#clipPath144)"
               id="g150"><g
                 transform="translate(277.5397,294.1642)"
                 id="g148"><path
                   d="m 0,0 -25.153,13.891 -9.565,-14.783 c 0.573,-5.538 1.644,-11.105 4.374,-15.937 3.461,-6.126 9.398,-10.624 15.945,-13.201 4.055,-1.597 8.452,-2.516 12.784,-2.042 0.701,0.077 1.397,0.207 2.088,0.362 z"
                   style="fill:#e9c9c9;fill-opacity:1;fill-rule:nonzero;stroke:none"
                   id="path146" /></g></g></g></g><g
           id="g154"
           transform="translate(296.6852,336.2106)"><path
             d="m 0,0 c 0,0 5.256,-45.049 -18.395,-49.179 -23.651,-4.13 -28.156,16.518 -28.156,16.518 0,0 -14.265,-1.502 -14.265,10.136 0,11.638 13.139,9.761 13.139,9.761 l 1.502,28.156 44.674,-2.628 z"
             style="fill:#fca4a2;fill-opacity:1;fill-rule:nonzero;stroke:none"
             id="path156" /></g><g
           id="g158"
           transform="translate(249.0079,323.4465)"><path
             d="M 0,0 C 0,0 19.146,3.003 17.269,22.9 20.648,17.645 21.023,3.003 21.023,3.003 L 49.93,2.252 c 0,0 1.877,13.14 -3.379,27.781 C 7.508,32.286 -1.501,31.91 -1.501,31.91 L -3.378,5.256 Z"
             style="fill:#231f9c;fill-opacity:1;fill-rule:nonzero;stroke:none"
             id="path160" /></g><g
           id="g162"
           transform="translate(287.5817,307.7487)"><path
             d="m 0,0 c -0.845,0.026 -1.74,0.053 -2.689,0.053 -1.618,0 -2.775,0.49 -3.642,1.542 -2.275,2.759 -1.954,8.625 -1.533,11.454 L 8.952,12.693 C 8.115,-0.241 6.19,-0.191 0,0 m -24.064,0.751 c -0.902,0.026 -1.859,0.053 -2.873,0.053 -1.858,0 -3.226,0.571 -4.182,1.746 -2.225,2.732 -1.954,8.206 -1.535,11.022 l 18.309,-0.386 C -15.258,0.508 -17.542,0.565 -24.064,0.751 m 38.84,15.82 -53.307,1.126 -0.085,-3.999 1.941,-0.041 c -0.4,-3.089 -0.776,-9.657 2.447,-13.625 1.715,-2.112 4.237,-3.228 7.291,-3.228 0.973,0 1.892,-0.027 2.757,-0.052 0.528,-0.015 1.035,-0.023 1.529,-0.023 5.665,0 9.108,1.179 10.938,7.466 0.4,-1.874 1.098,-3.69 2.291,-5.139 1.617,-1.965 3.945,-3.003 6.733,-3.003 0.905,0 1.76,-0.026 2.566,-0.051 0.501,-0.016 0.986,-0.024 1.455,-0.024 7.304,0 10.692,2.202 11.622,16.631 l 1.738,-0.037 z"
             style="fill:#231f20;fill-opacity:1;fill-rule:nonzero;stroke:none"
             id="path164" /></g><g
           id="g166"
           transform="translate(89.8331,62.1589)"><path
             d="m 0,0 c 0,0 -2.628,11.638 17.644,31.535 20.273,19.897 48.429,45.05 61.568,51.432 13.14,6.382 22.9,1.501 26.279,-6.382 3.379,-7.884 4.88,-12.389 1.502,-9.761 0.375,-4.881 -3.379,-5.256 -5.632,-2.253 2.253,-7.883 -2.252,-5.631 -4.505,-3.379 0.376,-7.883 -6.006,-0.751 -6.382,0.751 C 85.594,55.562 79.963,58.94 79.963,58.94 76.959,31.159 70.953,-12.389 70.953,-12.389 L 5.256,-14.641 Z"
             style="fill:#fca4a2;fill-opacity:1;fill-rule:nonzero;stroke:none"
             id="path168" /></g><g
           id="g170"
           transform="translate(181.88,131.8542)"><path
             d="m 0,0 c 1.423,-2.827 2.773,-5.69 4.049,-8.587 0.218,-0.494 0.94,-0.609 1.368,-0.358 0.51,0.298 0.578,0.872 0.359,1.368 C 4.5,-4.681 3.149,-1.817 1.727,1.01 1.484,1.492 0.804,1.629 0.359,1.368 -0.132,1.081 -0.244,0.484 0,0"
             style="fill:#231f20;fill-opacity:1;fill-rule:nonzero;stroke:none"
             id="path172" /></g><g
           id="g174"
           transform="translate(187.1574,134.1179)"><path
             d="m 0,0 c 1.394,-2.933 2.787,-5.865 4.181,-8.799 0.231,-0.487 0.93,-0.614 1.368,-0.358 0.499,0.292 0.591,0.879 0.359,1.368 C 4.514,-4.856 3.121,-1.924 1.727,1.009 1.495,1.497 0.797,1.624 0.359,1.368 -0.14,1.076 -0.232,0.489 0,0"
             style="fill:#231f20;fill-opacity:1;fill-rule:nonzero;stroke:none"
             id="path176" /></g><g
           id="g178"
           transform="translate(191.7116,137.3434)"><path
             d="m 0,0 c 1.257,-3.188 2.515,-6.377 3.772,-9.566 0.198,-0.502 0.669,-0.853 1.23,-0.699 0.478,0.132 0.898,0.726 0.699,1.231 C 4.443,-5.846 3.186,-2.657 1.928,0.531 1.73,1.033 1.259,1.384 0.698,1.229 0.22,1.099 -0.199,0.505 0,0"
             style="fill:#231f20;fill-opacity:1;fill-rule:nonzero;stroke:none"
             id="path180" /></g><g
           id="g182"
           transform="translate(188.1911,147.0026)"><path
             d="M 0,0 C 0,0 10.136,2.252 11.638,0.375 13.14,-1.502 3.379,-5.631 3.379,-5.631 l -6.382,3.378 z"
             style="fill:#fca4a2;fill-opacity:1;fill-rule:nonzero;stroke:none"
             id="path184" /></g><g
           id="g186"
           transform="translate(148.0221,122.6003)"><path
             d="M 0,0 21.398,-12.764 21.774,-1.501 4.505,7.509 Z"
             style="fill:#82adff;fill-opacity:1;fill-rule:nonzero;stroke:none"
             id="path188" /></g><g
           id="g190"
           transform="translate(155.2789,123.8503)"><path
             d="m 0,0 c -2.494,-5.417 -8.202,-8.111 -12.749,-6.018 -4.546,2.093 -6.21,8.182 -3.715,13.599 2.494,5.417 8.202,8.111 12.748,6.019 C 0.831,11.506 2.495,5.417 0,0"
             style="fill:#231f9c;fill-opacity:1;fill-rule:nonzero;stroke:none"
             id="path192" /></g><g
           id="g194"
           transform="translate(152.8444,125.2927)"><path
             d="m 0,0 c -2.428,-5.273 -7.984,-7.896 -12.41,-5.858 -4.425,2.038 -6.045,7.964 -3.617,13.238 2.428,5.273 7.985,7.896 12.41,5.858 C 0.809,11.2 2.428,5.273 0,0"
             style="fill:#ffffff;fill-opacity:1;fill-rule:nonzero;stroke:none"
             id="path196" /></g><g
           id="g198"
           transform="translate(152.7145,79.8034)"><path
             d="m 0,0 0.56,9.516 c 0.162,2.747 2.384,4.921 5.134,5.02 l 41.608,1.513 34.175,98.64 c 1.79,5.168 6.659,8.634 12.128,8.634 h 137.098 c 3.751,0 6.454,-3.597 5.411,-7.2 L 202.723,0.845 Z"
             style="fill:#bdd6ff;fill-opacity:1;fill-rule:nonzero;stroke:none"
             id="path200" /></g><g
           id="g202"
           transform="translate(387.5358,201.4372)"><path
             d="M 0,0 5.631,-12.951 -5.068,-15.767 -9.011,-1.689 Z"
             style="fill:#bdd6ff;fill-opacity:1;fill-rule:nonzero;stroke:none"
             id="path204" /></g><g
           id="g206"
           transform="translate(207.3371,79.3669)"><path
             d="m 0,0 38.092,105.928 c 1.805,5.019 6.593,8.344 11.927,8.283 l 129.137,-1.479 c 4.776,-0.054 8.191,-4.639 6.876,-9.231 L 156.547,0.563 C 156.547,0.563 -2.252,0 0,0"
             style="fill:#82adff;fill-opacity:1;fill-rule:nonzero;stroke:none"
             id="path208" /></g><g
           id="g210"><g
             id="g212" /><g
             id="g224"><g
               clip-path="url(#clipPath216)"
               id="g222"><g
                 transform="translate(391.4274,176.0895)"
                 id="g220"><path
                   d="m 0,0 c -45.116,-33.402 -96.198,-58.722 -150.103,-74.391 -9.242,-2.686 -18.668,-5.095 -28.199,-6.236 l -5.788,-16.096 c 1.897,0.015 156.547,0.564 156.547,0.564 z"
                   style="fill:#c5ccc9;fill-opacity:1;fill-rule:nonzero;stroke:none"
                   id="path218" /></g></g></g></g><g
           id="g226"
           transform="translate(406.3063,256.6232)"><path
             d="m 0,0 c 0,0 -12.765,1.877 -15.017,-6.757 -2.253,-8.635 0,-16.143 3.003,-19.522 C -9.01,-29.658 0,-28.907 0,-28.907 l 0.375,4.13 c 0,0 -7.133,-2.628 -8.259,4.129 -1.126,6.758 -1.877,12.014 -0.751,13.891 1.126,1.877 8.259,2.252 8.259,2.252 z"
             style="fill:#231f9c;fill-opacity:1;fill-rule:nonzero;stroke:none"
             id="path228" /></g><g
           id="g230"
           transform="translate(384.9078,247.989)"><path
             d="m 0,0 c 0,0 -4.881,-2.628 -1.127,-5.256 l 3.379,-1.502 c 0,0 -4.129,-1.126 -3.003,-3.379 1.126,-2.252 4.505,-1.126 4.505,-1.126 0,0 -4.881,-2.253 -2.253,-4.505 2.628,-2.253 7.884,-1.877 7.884,-1.877 l 3.584,0.854 c 1.73,1.254 2.774,3.26 3.174,6.654 C 16.894,-3.755 14.266,4.88 14.266,4.88 L -0.376,4.505 C -0.376,4.505 -4.13,2.252 0,0"
             style="fill:#fca4a2;fill-opacity:1;fill-rule:nonzero;stroke:none"
             id="path232" /></g><g
           id="g234"
           transform="translate(384.1539,247.0622)"><path
             d="m 0,0 c 3.316,0.114 6.634,0.228 9.95,0.342 1.283,0.044 1.289,2.044 0,1.999 C 6.634,2.228 3.316,2.114 0,2 -1.283,1.956 -1.289,-0.044 0,0"
             style="fill:#231f20;fill-opacity:1;fill-rule:nonzero;stroke:none"
             id="path236" /></g><g
           id="g238"
           transform="translate(387.0299,241.1638)"><path
             d="m 0,0 c 3.029,0.42 6.084,0.655 9.141,0.732 1.284,0.033 1.29,2.033 0,2 C 5.902,2.65 2.677,2.373 -0.531,1.929 -1.067,1.854 -1.359,1.17 -1.23,0.698 -1.071,0.122 -0.537,-0.074 0,0"
             style="fill:#231f20;fill-opacity:1;fill-rule:nonzero;stroke:none"
             id="path240" /></g><g
           id="g242"
           transform="translate(387.9049,235.7751)"><path
             d="M 0,0 C 2.796,0.336 5.583,0.74 8.357,1.219 8.89,1.311 9.188,1.965 9.056,2.448 8.901,3.012 8.36,3.239 7.825,3.147 5.228,2.699 2.618,2.314 0,2 -0.536,1.936 -1,1.587 -1,1 -1,0.51 -0.54,-0.064 0,0"
             style="fill:#231f20;fill-opacity:1;fill-rule:nonzero;stroke:none"
             id="path244" /></g><g
           id="g246"
           transform="translate(417.568,257.3742)"><path
             d="m 0,0 c -7.832,0.313 -12.323,1.28 -14.907,2.301 -0.036,-0.017 -0.072,-0.031 -0.11,-0.049 l 1.502,-34.538 c 0,0 15.768,-4.13 32.286,1.126 L 19.137,3.605 C 15.375,1.561 9.303,-0.373 0,0"
             style="fill:#ff78c0;fill-opacity:1;fill-rule:nonzero;stroke:none"
             id="path248" /></g><g
           id="g250"
           transform="translate(402.6608,259.675)"><path
             d="m 0,0 c 2.584,-1.021 7.075,-1.988 14.907,-2.301 9.303,-0.372 15.375,1.561 19.137,3.606 l 0.01,0.899 C 34.054,2.204 18.349,8.558 0,0"
             style="fill:#231f9c;fill-opacity:1;fill-rule:nonzero;stroke:none"
             id="path252" /></g><g
           id="g254"
           transform="translate(403.5201,237.3669)"><path
             d="m 0,0 c 0.612,-0.626 1.465,-1.016 2.41,-1.016 1.866,0 3.379,1.513 3.379,3.378 0,1.867 -1.513,3.379 -3.379,3.379 -1.056,0 -1.986,-0.494 -2.605,-1.252 z"
             style="fill:#bdd6ff;fill-opacity:1;fill-rule:nonzero;stroke:none"
             id="path256" /></g><g
           id="g258"
           transform="translate(417.193,250.4289)"><path
             d="m 0,0 c -1.866,0 -3.379,-1.513 -3.379,-3.378 0,-1.867 1.513,-3.379 3.379,-3.379 1.866,0 3.379,1.512 3.379,3.379 C 3.379,-1.513 1.866,0 0,0"
             style="fill:#bdd6ff;fill-opacity:1;fill-rule:nonzero;stroke:none"
             id="path260" /></g><g
           id="g262"
           transform="translate(428.4557,257.7492)"><path
             d="m 0,0 c -1.866,0 -3.379,-1.513 -3.379,-3.378 0,-1.867 1.513,-3.379 3.379,-3.379 1.866,0 3.379,1.512 3.379,3.379 C 3.379,-1.513 1.866,0 0,0"
             style="fill:#bdd6ff;fill-opacity:1;fill-rule:nonzero;stroke:none"
             id="path264" /></g><g
           id="g266"
           transform="translate(416.818,239.1667)"><path
             d="m 0,0 c -1.866,0 -3.379,-1.513 -3.379,-3.379 0,-1.866 1.513,-3.379 3.379,-3.379 1.865,0 3.378,1.513 3.378,3.379 C 3.378,-1.513 1.865,0 0,0"
             style="fill:#bdd6ff;fill-opacity:1;fill-rule:nonzero;stroke:none"
             id="path268" /></g><g
           id="g270"
           transform="translate(420.7428,223.5944)"><path
             d="m 0,0 c 0.124,0.352 0.204,0.725 0.204,1.118 0,1.866 -1.513,3.379 -3.379,3.379 -1.865,0 -3.378,-1.513 -3.378,-3.379 0,-0.369 0.074,-0.719 0.184,-1.052 C -4.431,-0.045 -2.288,-0.084 0,0"
             style="fill:#bdd6ff;fill-opacity:1;fill-rule:nonzero;stroke:none"
             id="path272" /></g><g
           id="g274"
           transform="translate(427.8922,234.2858)"><path
             d="m 0,0 c -1.866,0 -3.379,-1.513 -3.379,-3.379 0,-1.865 1.513,-3.378 3.379,-3.378 1.866,0 3.379,1.513 3.379,3.378 C 3.379,-1.513 1.866,0 0,0"
             style="fill:#bdd6ff;fill-opacity:1;fill-rule:nonzero;stroke:none"
             id="path276" /></g><g
           id="g278"
           transform="translate(436.484,239.989)"><path
             d="m 0,0 c -0.982,-0.592 -1.646,-1.657 -1.646,-2.888 0,-1.205 0.635,-2.256 1.585,-2.853 z"
             style="fill:#bdd6ff;fill-opacity:1;fill-rule:nonzero;stroke:none"
             id="path280" /></g><g
           id="g282"
           transform="translate(428.0797,246.487)"><path
             d="m 0,0 c -1.865,0 -3.378,-1.513 -3.378,-3.379 0,-1.866 1.513,-3.379 3.378,-3.379 1.866,0 3.379,1.513 3.379,3.379 C 3.379,-1.513 1.866,0 0,0"
             style="fill:#bdd6ff;fill-opacity:1;fill-rule:nonzero;stroke:none"
             id="path284" /></g><g
           id="g286"
           transform="translate(436.5739,248.4997)"><path
             d="M 0,0 0.041,3.908 C -0.364,3.351 -0.61,2.671 -0.61,1.929 -0.61,1.211 -0.383,0.548 0,0"
             style="fill:#bdd6ff;fill-opacity:1;fill-rule:nonzero;stroke:none"
             id="path288" /></g><g
           id="g290"
           transform="translate(406.8688,247.613)"><path
             d="M 0,0 C 1.866,0 3.379,1.513 3.379,3.379 3.379,5.245 1.866,6.758 0,6.758 -1.865,6.758 -3.378,5.245 -3.378,3.379 -3.378,1.513 -1.865,0 0,0"
             style="fill:#bdd6ff;fill-opacity:1;fill-rule:nonzero;stroke:none"
             id="path292" /></g><g
           id="g294"
           transform="translate(417.568,257.3742)"><path
             d="m 0,0 c -0.952,0.038 -1.854,0.086 -2.711,0.143 0.359,-1.48 1.684,-2.583 3.274,-2.583 1.532,0 2.809,1.024 3.224,2.42 C 2.587,-0.055 1.33,-0.054 0,0"
             style="fill:#bdd6ff;fill-opacity:1;fill-rule:nonzero;stroke:none"
             id="path296" /></g><g
           id="g298"
           transform="translate(407.5543,224.3942)"><path
             d="m 0,0 c 1.247,0.497 2.131,1.71 2.131,3.135 0,1.865 -1.513,3.378 -3.379,3.378 -0.973,0 -1.843,-0.416 -2.459,-1.074 l 0.206,-4.745 c 0,0 1.285,-0.336 3.501,-0.694"
             style="fill:#bdd6ff;fill-opacity:1;fill-rule:nonzero;stroke:none"
             id="path300" /></g><g
           id="g302"><g
             id="g304" /><g
             id="g316"><g
               clip-path="url(#clipPath308)"
               opacity="0.300003"
               id="g314"><g
                 transform="translate(220.8566,344.9743)"
                 id="g312"><path
                   d="M 0,0 C 25.976,0.766 51.798,6.509 75.641,16.847 64.61,26.237 47.673,21.645 47.673,21.645 18.029,32.703 5.342,14.861 0,0"
                   style="fill:#ffffff;fill-opacity:1;fill-rule:nonzero;stroke:none"
                   id="path310" /></g></g></g></g><path
           d="M 46.855,47.706 H 453.146 V 79.804 H 46.855 Z"
           style="fill:#231f9c;fill-opacity:1;fill-rule:nonzero;stroke:none"
           id="path318" /><g
           id="g320"
           transform="translate(428.4293,278.2155)"><path
             d="m 0,0 h -87.341 c -3.405,0 -6.166,2.76 -6.166,6.166 v 110.991 c 0,3.406 2.761,6.166 6.166,6.166 H 0 c 3.405,0 6.166,-2.76 6.166,-6.166 V 6.166 C 6.166,2.76 3.405,0 0,0"
             style="fill:#6a9ce5;fill-opacity:1;fill-rule:nonzero;stroke:none"
             id="path322" /></g><g
           id="g324"
           transform="translate(434.4293,285.2155)"><path
             d="m 0,0 h -87.341 c -3.405,0 -6.166,2.76 -6.166,6.166 v 110.991 c 0,3.406 2.761,6.166 6.166,6.166 H 0 c 3.405,0 6.166,-2.76 6.166,-6.166 V 6.166 C 6.166,2.76 3.405,0 0,0"
             style="fill:#82adff;fill-opacity:1;fill-rule:nonzero;stroke:none"
             id="path326" /></g><g
           id="g328"
           transform="translate(441.3414,290.9733)"><path
             d="m 0,0 h -87.341 c -3.405,0 -6.165,2.761 -6.165,6.166 v 110.992 c 0,3.405 2.76,6.165 6.165,6.165 H 0 c 3.405,0 6.166,-2.76 6.166,-6.165 V 6.166 C 6.166,2.761 3.405,0 0,0"
             style="fill:#bdd6ff;fill-opacity:1;fill-rule:nonzero;stroke:none"
             id="path330" /></g><g
           id="g332"
           transform="translate(428.0797,393.6501)"><path
             d="m 0,0 h -60.817 c -0.829,0 -1.5,0.671 -1.5,1.5 0,0.829 0.671,1.5 1.5,1.5 H 0 C 0.828,3 1.5,2.329 1.5,1.5 1.5,0.671 0.828,0 0,0"
             style="fill:#231f9c;fill-opacity:1;fill-rule:nonzero;stroke:none"
             id="path334" /></g><g
           id="g336"
           transform="translate(428.0797,385.2033)"><path
             d="m 0,0 h -60.817 c -0.829,0 -1.5,0.671 -1.5,1.5 0,0.829 0.671,1.5 1.5,1.5 H 0 C 0.828,3 1.5,2.329 1.5,1.5 1.5,0.671 0.828,0 0,0"
             style="fill:#231f9c;fill-opacity:1;fill-rule:nonzero;stroke:none"
             id="path338" /></g><g
           id="g340"
           transform="translate(406.2584,376.7565)"><path
             d="m 0,0 h -38.996 c -0.828,0 -1.5,0.671 -1.5,1.5 0,0.829 0.672,1.5 1.5,1.5 H 0 C 0.828,3 1.5,2.329 1.5,1.5 1.5,0.671 0.828,0 0,0"
             style="fill:#231f9c;fill-opacity:1;fill-rule:nonzero;stroke:none"
             id="path342" /></g><g
           id="g344"
           transform="translate(428.0797,358.737)"><path
             d="m 0,0 h -60.817 c -0.829,0 -1.5,0.671 -1.5,1.5 0,0.829 0.671,1.5 1.5,1.5 H 0 C 0.828,3 1.5,2.329 1.5,1.5 1.5,0.671 0.828,0 0,0"
             style="fill:#231f9c;fill-opacity:1;fill-rule:nonzero;stroke:none"
             id="path346" /></g><g
           id="g348"
           transform="translate(428.0797,350.2902)"><path
             d="m 0,0 h -60.817 c -0.829,0 -1.5,0.671 -1.5,1.5 0,0.829 0.671,1.5 1.5,1.5 H 0 C 0.828,3 1.5,2.329 1.5,1.5 1.5,0.671 0.828,0 0,0"
             style="fill:#231f9c;fill-opacity:1;fill-rule:nonzero;stroke:none"
             id="path350" /></g><g
           id="g352"
           transform="translate(406.2584,341.8434)"><path
             d="m 0,0 h -38.996 c -0.828,0 -1.5,0.671 -1.5,1.5 0,0.829 0.672,1.5 1.5,1.5 H 0 C 0.828,3 1.5,2.329 1.5,1.5 1.5,0.671 0.828,0 0,0"
             style="fill:#231f9c;fill-opacity:1;fill-rule:nonzero;stroke:none"
             id="path354" /></g><g
           id="g356"
           transform="translate(428.0797,323.8234)"><path
             d="m 0,0 h -60.817 c -0.829,0 -1.5,0.671 -1.5,1.5 0,0.829 0.671,1.5 1.5,1.5 H 0 C 0.828,3 1.5,2.329 1.5,1.5 1.5,0.671 0.828,0 0,0"
             style="fill:#231f9c;fill-opacity:1;fill-rule:nonzero;stroke:none"
             id="path358" /></g><g
           id="g360"
           transform="translate(428.0797,315.3766)"><path
             d="m 0,0 h -60.817 c -0.829,0 -1.5,0.671 -1.5,1.5 0,0.829 0.671,1.5 1.5,1.5 H 0 C 0.828,3 1.5,2.329 1.5,1.5 1.5,0.671 0.828,0 0,0"
             style="fill:#231f9c;fill-opacity:1;fill-rule:nonzero;stroke:none"
             id="path362" /></g><g
           id="g364"
           transform="translate(406.2584,306.9299)"><path
             d="m 0,0 h -38.996 c -0.828,0 -1.5,0.671 -1.5,1.5 0,0.829 0.672,1.5 1.5,1.5 H 0 C 0.828,3 1.5,2.329 1.5,1.5 1.5,0.671 0.828,0 0,0"
             style="fill:#231f9c;fill-opacity:1;fill-rule:nonzero;stroke:none"
             id="path366" /></g><g
           id="g368"
           transform="translate(453.3502,410.7067)"><path
             d="m 0,0 c 0,-4.51 -3.656,-8.166 -8.166,-8.166 -4.509,0 -8.165,3.656 -8.165,8.166 0,4.509 3.656,8.165 8.165,8.165 C -3.656,8.165 0,4.509 0,0"
             style="fill:#231f9c;fill-opacity:1;fill-rule:nonzero;stroke:none"
             id="path370" /></g><g
           id="g372"
           transform="translate(446.5983,410.7067)"><path
             d="m 0,0 2.25,2.249 c 0.391,0.391 0.391,1.023 0,1.414 -0.391,0.391 -1.023,0.391 -1.414,0 l -2.25,-2.249 -2.249,2.249 c -0.391,0.391 -1.024,0.391 -1.414,0 -0.391,-0.391 -0.391,-1.023 0,-1.414 L -2.828,0 -5.077,-2.25 c -0.391,-0.39 -0.391,-1.023 0,-1.414 0.195,-0.195 0.451,-0.293 0.707,-0.293 0.256,0 0.512,0.098 0.707,0.293 l 2.249,2.25 2.25,-2.25 c 0.195,-0.195 0.451,-0.293 0.707,-0.293 0.256,0 0.512,0.098 0.707,0.293 0.391,0.391 0.391,1.024 0,1.414 z"
             style="fill:#ffffff;fill-opacity:1;fill-rule:nonzero;stroke:none"
             id="path374" /></g><g
           id="g376"
           transform="translate(299.7086,451.777)"><path
             d="m 0,0 c -0.7,2.419 -2.927,4.19 -5.572,4.19 h -66.101 c -2.576,0 -4.756,-1.678 -5.515,-4 l 38.876,-26.408 z"
             style="fill:#82adff;fill-opacity:1;fill-rule:nonzero;stroke:none"
             id="path378" /></g><g
           id="g380"
           transform="translate(299.941,409.402)"><path
             d="m 0,0 v 40.76 c 0,0.561 -0.084,1.102 -0.232,1.615 L -29.531,22.325 -1.572,-3.964 C -0.6,-2.926 0,-1.535 0,0"
             style="fill:#77a6f2;fill-opacity:1;fill-rule:nonzero;stroke:none"
             id="path382" /></g><g
           id="g384"
           transform="translate(222.5202,451.967)"><path
             d="m 0,0 c -0.186,-0.568 -0.29,-1.174 -0.29,-1.805 v -40.76 c 0,-1.602 0.65,-3.054 1.701,-4.104 l 27.22,27.22 z"
             style="fill:#77a6f2;fill-opacity:1;fill-rule:nonzero;stroke:none"
             id="path386" /></g><g
           id="g388"
           transform="translate(294.1364,403.5974)"><path
             d="m 0,0 c 1.671,0 3.173,0.71 4.232,1.84 l -27.959,26.289 -9.012,-6.168 -10.246,6.96 L -70.206,1.7 C -69.155,0.649 -67.704,0 -66.101,0 Z"
             style="fill:#6a9ce5;fill-opacity:1;fill-rule:nonzero;stroke:none"
             id="path390" /></g><g
           id="g392"
           transform="translate(303.0387,450.6237)"><path
             d="m 0,0 c 0,-4.509 -3.656,-8.165 -8.165,-8.165 -4.51,0 -8.166,3.656 -8.166,8.165 0,4.51 3.656,8.166 8.166,8.166 C -3.656,8.166 0,4.51 0,0"
             style="fill:#231f9c;fill-opacity:1;fill-rule:nonzero;stroke:none"
             id="path394" /></g><g
           id="g396"
           transform="translate(296.2877,450.6237)"><path
             d="m 0,0 2.249,2.25 c 0.391,0.39 0.391,1.023 0,1.414 -0.391,0.39 -1.023,0.39 -1.414,0 l -2.249,-2.25 -2.25,2.25 c -0.391,0.39 -1.023,0.39 -1.414,0 -0.391,-0.391 -0.391,-1.024 0,-1.414 L -2.829,0 -5.078,-2.249 c -0.391,-0.391 -0.391,-1.023 0,-1.414 0.195,-0.195 0.451,-0.293 0.707,-0.293 0.256,0 0.512,0.098 0.707,0.293 l 2.25,2.249 2.249,-2.249 c 0.195,-0.195 0.451,-0.293 0.707,-0.293 0.256,0 0.512,0.098 0.707,0.293 0.391,0.391 0.391,1.023 0,1.414 z"
             style="fill:#ffffff;fill-opacity:1;fill-rule:nonzero;stroke:none"
             id="path398" /></g></g></g></g></svg>
